<svg version="1.2" xmlns="http://www.w3.org/2000/svg" viewBox="0 0 3200 1800" width="3200" height="1800"><style>.a{fill:#0b234b}.b{fill:#fefffe}</style><path class="a" d="m0 900v900h3200v-1800h-3200z"/><path class="b" d="m920.5 583.6c-2.8 0.3-11.3 1.3-19 2.4-7.7 1.2-20.1 3.4-27.5 5.1-7.4 1.6-19.6 4.8-27 7-7.4 2.3-18.2 6-24 8.2-5.8 2.3-17.9 7.8-27 12.3-9.1 4.5-21.6 11.4-27.8 15.3-6.1 3.9-14.5 9.4-18.4 12.3-4 2.9-11.8 8.8-17.3 13.2-5.5 4.4-16.4 14.4-24.3 22.1-7.9 7.7-18.5 18.9-23.5 24.8-5.1 6-13.1 16.3-17.9 23-4.8 6.7-12 17.8-16.2 24.7-4.1 6.9-10.1 17.9-13.4 24.5-3.3 6.6-8.2 17.4-11 24-2.8 6.6-6.9 17.4-9.1 24-2.2 6.6-5.6 18.3-7.5 26-2 7.7-4.4 19.2-5.5 25.5-1.1 6.3-2.7 17.6-3.6 25-1.3 11.5-1.5 35.4-1.5 164.2v150.8h694c-0.6-309.5-0.6-310.6-2.8-324.5-1.2-7.7-2.7-16.5-3.3-19.5-0.6-3-2.1-10-3.4-15.5-1.3-5.5-4-15.3-5.9-21.8-2-6.4-6-17.9-9-25.5-2.9-7.5-8.3-19.8-11.9-27.2-3.6-7.4-9.7-18.7-13.4-25-3.8-6.3-9.3-15.1-12.3-19.5-3-4.4-7.9-11.4-10.9-15.5-3.1-4.1-8.7-11.3-12.6-16-3.9-4.7-11.4-13-16.6-18.4-5.2-5.5-14.6-14.5-20.9-20-6.3-5.6-16-13.5-21.5-17.7-5.5-4.2-14-10.3-19-13.6-5-3.3-13.5-8.6-19-11.8-5.5-3.3-15.8-8.7-23-12.1-7.2-3.4-19.1-8.4-26.5-11.2-7.4-2.8-19.3-6.6-26.5-8.5-7.2-1.9-17.7-4.4-23.5-5.6-5.8-1.1-15.2-2.8-21-3.6-7.1-1.1-19.2-1.7-37.5-2-14.9-0.1-29.3-0.1-32 0.1zm998.5 31.9c-4.1 0.8-9.5 2.2-12 3.1-2.5 0.9-7.4 3.2-11 4.9-3.6 1.8-8.3 4.7-10.5 6.4-2.2 1.8-7.1 6.2-10.8 9.9-3.8 3.7-9.3 10.3-12.2 14.7-3 4.4-7 11.6-9.1 16-2 4.4-4.9 11.8-6.5 16.5-1.5 4.7-3.7 13-4.8 18.5-1.1 5.5-2.5 15.4-3.2 22-0.7 7.2-1 18.5-0.6 28.5 0.3 9.1 1.3 21.7 2.2 28 0.9 6.3 2.7 15.8 4 21 1.4 5.2 3.7 12.9 5.3 17 1.6 4.1 4.2 10 5.7 13 1.5 3 4.8 8.6 7.4 12.4 2.5 3.8 8.2 10.3 12.6 14.5 4.9 4.7 10.7 9 15 11.2 3.8 2 9.9 4.6 13.5 5.8 3.6 1.2 10.5 2.5 15.5 2.9 5 0.4 13.7 0.4 19.5 0.1 5.8-0.4 14.3-1.7 19-3 4.7-1.2 11.7-3.7 15.5-5.5 3.8-1.8 7.9-4.2 9-5.4 1.9-2.1 2-4 2.5-58.7l0.5-56.5c4.1-3.6 7.1-4.7 10.5-5.2 3-0.5 6.3-1.2 7.2-1.7 1-0.5 1.8-2 1.8-3.4 0-1.8-0.8-2.8-2.8-3.6-1.8-0.7-14.7-0.9-37.5-0.7-29.6 0.3-34.9 0.5-35.7 1.8-0.5 0.8-1 2-1 2.5 0 0.5 0.5 1.7 1 2.5 0.7 1 4.4 1.9 12.2 2.8 6.4 0.7 12.3 1.9 13.6 2.7 1.2 0.8 2.7 2.6 3.2 4 0.6 1.5 1 20.2 1 48.5 0 26.4-0.4 48-1 50.7-0.5 2.7-2 6.4-3.3 8.3-1.3 1.9-3.8 4.5-5.7 5.8-1.9 1.3-5.3 2.8-7.5 3.4-2.2 0.6-7.8 1.1-12.5 1.1-6.8 0-9.8-0.6-15-2.7-3.6-1.4-9.1-4.6-12.2-7.1-3.2-2.5-8-7.5-10.8-11.3-2.7-3.7-6.7-10.3-8.8-14.7-2.2-4.4-5.1-11.6-6.5-16-1.5-4.4-3.5-12.5-4.6-18-1.1-5.5-2.5-15.2-3.3-21.5-0.7-6.5-1.2-21.8-1.2-35 0.1-15.8 0.6-27.8 1.8-36.5 0.9-7.2 2.8-17.7 4.2-23.5 1.4-5.8 3.9-13.9 5.5-18 1.7-4.1 4.4-10 6.1-13 1.8-3 5.1-8 7.4-11 2.3-3 6-6.9 8.1-8.6 2.1-1.6 5.4-3.9 7.3-5.1 1.9-1.1 6-2.8 9-3.8 4.3-1.4 7.4-1.7 14.5-1.2 7.3 0.5 10.1 1.1 15 3.6 3.3 1.6 7.2 4.2 8.7 5.8 1.5 1.5 4.3 5.5 6.3 8.8 1.9 3.3 4.9 9.5 6.5 13.7 1.7 4.3 4.6 13.5 6.5 20.5 1.9 7.1 4 13.4 4.7 14.1 0.8 0.9 2.3 1.2 4.1 0.8 1.5-0.3 2.9-1.3 3.2-2.1 0.3-0.8 0.2-15.1-0.2-31.8-0.7-26.8-0.9-30.5-2.5-32.5-1-1.2-5.3-3.5-9.5-5.1-4.3-1.6-11.4-3.7-15.8-4.6-4.4-0.9-13.2-1.8-19.5-2-7.5-0.3-14.1 0-19 1zm348.5-0.6c-2.7 0.4-7.2 1.6-10 2.6-2.7 1-7 3-9.5 4.4-2.5 1.3-7.4 4.7-10.8 7.5-3.5 2.8-8.7 8-11.6 11.6-2.9 3.6-6.2 7.8-7.3 9.5-1.2 1.6-4.4 7.5-7.1 13-2.8 5.5-6.4 14.3-8.2 19.5-1.7 5.2-4.2 14.2-5.5 20-1.3 5.8-2.9 15.5-3.5 21.5-0.5 6-1 16.8-1 24 0 7.1 0.5 17.5 1 23 0.6 5.5 1.9 14.7 3.1 20.5 1.2 5.8 3.7 15.2 5.6 21 1.9 5.8 5.8 15 8.6 20.5 2.9 5.5 7.7 13.4 10.8 17.5 3.1 4.1 8 9.8 11 12.6 3 2.8 7.9 6.7 10.9 8.6 3 1.9 7.8 4.5 10.5 5.6 2.8 1.2 7 2.6 9.5 3.2 2.5 0.5 8.1 1 12.5 1 4.7 0 10.7-0.7 14.5-1.8 3.6-1 9.7-3.5 13.5-5.7 4.3-2.4 10.3-7.1 15.6-12.4 4.8-4.7 11.1-12.4 14.2-17.1 3-4.7 6.8-11.2 8.5-14.5 1.6-3.3 4.6-11 6.7-17 2-6 4.7-16.2 6-22.5 1.3-6.3 2.9-18.3 3.5-26.5 0.7-8.5 0.9-20 0.6-26.5-0.4-6.3-1.4-16.2-2.2-22-0.9-5.8-2.6-14.5-3.9-19.5-1.3-5-3.1-11.3-4-14-0.9-2.8-3.9-9.7-6.7-15.5-2.7-5.8-6.8-13.2-9-16.5-2.3-3.3-6.4-8.7-9.2-11.9-2.8-3.2-7.6-7.8-10.6-10.1-3-2.3-7.5-5.3-10-6.8-2.5-1.4-7.2-3.5-10.5-4.6-3.3-1.1-9.4-2.2-13.5-2.5-4.1-0.2-9.7-0.1-12.5 0.3zm-861.4 4.6c-0.6 0.8-0.9 2.4-0.6 3.5 0.3 1.3 1.8 2.3 4.2 2.9 2.1 0.5 5.8 1.2 8.3 1.6 2.5 0.3 6 1.5 7.7 2.5 2.3 1.4 3.6 3.2 4.3 5.7 0.6 2.4 1 43.7 1 112.8 0 69.1-0.4 110.4-1 112.7-0.6 2.4-2 4.4-3.8 5.5-1.6 1-6.2 2.4-10.3 3-5 0.9-8 1.9-9.4 3.3-1.6 1.7-1.8 2.5-0.9 3.8 1 1.5 4.5 1.7 37.9 1.7 33.9 0 36.9-0.1 37.9-1.8 0.8-1.2 0.8-2.2 0-3.5-0.7-1.1-3.5-2.2-8-3-3.8-0.7-8.2-1.6-9.8-2-1.6-0.4-3.8-2-5-3.5-2.1-2.8-2.1-3.6-2.1-47.5v-44.7c3.7-7 6.8-12 9.2-15.8 2.3-3.7 4.9-6.7 5.5-6.7 0.7-0.1 2 0.7 2.9 1.7 0.9 1 5.1 8.5 9.4 16.8 4.3 8.2 9 17.2 10.5 20 1.5 2.7 5.8 10.9 9.5 18 3.7 7.1 8.7 16.6 11 21 2.3 4.4 6.5 12.3 9.3 17.5 2.7 5.2 5.4 11.3 6 13.5 0.6 2.5 0.7 5 0.2 6.5-0.5 1.4-2.2 3-3.7 3.7-1.5 0.6-4.8 1.5-7.3 1.9-2.5 0.3-5.3 1-6.3 1.5-0.9 0.5-1.7 1.7-1.7 2.6-0.1 1 0.5 2.4 1.2 3 1 1 16.1 1.3 66.8 1.3 61.7 0.1 65.6 0 66.7-1.7 0.8-1.2 0.9-2.4 0.3-3.6-0.6-0.9-2.5-2.1-4.3-2.6-1.7-0.6-5.5-1.3-8.2-1.7-2.8-0.5-6.3-1.7-7.9-2.8-1.7-1.2-3.3-3.5-3.8-5.4-0.4-1.7-0.7-53.6-0.6-115.1 0.3-110.3 0.3-111.9 2.3-114.1 1.1-1.2 4.2-2.7 7-3.5 2.7-0.7 6.7-1.6 8.7-1.9 2.1-0.3 4.7-1.5 5.8-2.6 1.6-1.6 1.8-2.4 1-4-1-2-2-2-68.8-2-59.9-0.1-67.8 0.1-69 1.5-0.6 0.8-1 2.4-0.7 3.5 0.3 1.1 1.3 2.2 2.2 2.5 1 0.2 4.3 0.9 7.3 1.5 3 0.6 6.4 1.6 7.5 2.4 1.1 0.7 2.3 2.5 2.7 3.9 0.6 1.9 0.1 4.2-1.5 7.9-1.3 2.9-15.7 26.4-32.1 52.3-16.5 25.8-31 48.1-32.3 49.5-2.4 2.5-2.4 2.5-3.9 0.5-1.2-1.7-1.4-9.8-1.4-53 0-30.6 0.4-52.5 1-54.8 0.7-2.5 2-4.3 4.2-5.7 1.8-1 5.5-2.2 8.3-2.5 2.7-0.4 6.7-1.1 8.7-1.6 3.5-0.8 3.8-1.2 3.5-4.2l-0.2-3.2c-69.3-0.5-74.4-0.3-75.4 1zm244.1-0.7c-0.7 0.4-1.2 1.8-1 3.2 0.2 1.9 1.2 2.8 4.3 3.8 2.2 0.6 6.7 1.7 10 2.4 3.5 0.6 6.9 2 8.1 3.2 1.4 1.4 2.4 4 2.8 7.6 0.4 3 0.6 53.2 0.4 111.5-0.3 94.1-0.5 106.4-1.9 109.5-0.9 1.9-2.9 4.7-4.5 6.1-2 1.7-5.2 3-10.3 4-4 0.8-7.7 1.9-8.2 2.4-0.5 0.5-0.8 2.1-0.7 3.5l0.3 2.5c44.2 0.4 58 0.3 59.2 0 1.8-0.4 2.2-1.1 2-3.1-0.1-1.5-0.9-3-1.7-3.5-0.8-0.4-4.7-1.5-8.5-2.3-5.3-1.2-7.7-2.3-9.8-4.6-1.5-1.6-3.1-4.7-3.7-6.8-0.6-2.3-0.9-39.5-0.7-101.7 0.2-85.5 0.4-98 1.7-98 0.9 0 4.9 7.5 11 20.6 5.2 11.3 13.5 29.3 18.4 40 4.9 10.7 17.1 37.2 27.1 58.9 10 21.7 23.1 50.1 29 63 5.9 12.9 12.3 26.5 14.1 30.2 1.9 3.8 4.3 7.7 5.4 8.8 1.1 1.1 3.3 2 5 2 1.7 0 3.7-0.3 4.6-0.8 0.9-0.4 2.2-1.6 2.8-2.7 0.8-1.4 1.2-36.4 1.6-121 0.4-103.1 0.7-119.4 2-121.9 0.8-1.6 2.8-3.9 4.4-5 1.5-1.2 6.2-2.8 10.3-3.6 4.9-1 8-2.1 8.7-3.3 0.8-1.2 0.8-2.2 0-3.5-1-1.5-3.8-1.7-30.5-2-25.6-0.3-29.6-0.1-30.7 1.2-0.6 0.9-1 2.5-0.7 3.6 0.3 1.3 1.8 2.3 4.2 2.9 2.1 0.5 5.5 1.2 7.5 1.5 2.1 0.3 5.2 1.8 6.9 3.3 1.7 1.6 3.9 4.4 4.8 6.3 1.4 3.1 1.6 12.8 1.9 89 0.2 47 0 86.5-0.3 87.7-0.3 1.3-1.2 2.3-2 2.3-0.9 0-3-3.1-5.1-7.8-2-4.2-9.8-21.4-17.4-38.2-7.6-16.8-18.3-40.5-23.9-52.8-5.6-12.2-14.6-32-20-44-5.4-11.9-12.5-27.3-15.6-34.2-3.1-6.9-6.4-13.7-7.3-15.2-0.9-1.5-2.9-3.4-4.5-4.3-2.2-1.2-6.8-1.5-25.5-1.5-12.5 0-23.3 0.4-24 0.8zm354.8-0.1c-0.8 0.2-1.3 1.5-1.2 2.9 0.1 1.7 1.2 2.8 3.4 3.8 1.8 0.7 5.5 1.7 8.3 2.1 2.7 0.4 6.2 1.3 7.7 2.1 1.6 0.8 3.5 2.4 4.3 3.6 1.3 2 1.5 16.1 1.5 114 0 80.8-0.3 112.4-1.1 114-0.6 1.3-2.1 3.3-3.3 4.6-1.4 1.5-4.6 2.8-9.6 3.8-4.1 0.9-8.3 2.1-9.3 2.5-1.1 0.6-1.6 1.8-1.5 3.6l0.3 2.8c83.9 0 90.8-0.2 96-1.7 3.3-0.9 8.5-2.6 11.5-3.7 3-1.1 8.9-4.2 13-6.9 4.1-2.6 10.4-7.7 14-11.3 3.6-3.5 9.2-10.5 12.5-15.4 3.3-5 7.6-12.8 9.6-17.5 2-4.7 4.8-12.5 6.3-17.5 1.4-5 3.3-13 4.3-18 1.5-7.4 1.8-14.1 1.8-37 0-24.7-0.3-29.4-2.2-39.5-1.2-6.3-3.7-16.2-5.6-22-1.9-5.8-5.4-14.5-7.9-19.5-2.4-5-5.9-11.3-7.7-14-1.9-2.8-7.5-9-12.5-14-5.7-5.6-11.6-10.3-15.6-12.5-3.6-1.9-8.8-4.3-11.5-5.3-2.8-1-8-2.4-11.8-3.2-5.3-1.2-15.6-1.5-49.5-1.4-23.5 0-43.4 0.3-44.2 0.6zm372.1 0c-0.9 0.2-1.4 1.5-1.3 2.9 0.1 1.3 1.1 2.9 2.2 3.4 1.1 0.5 5.5 1.7 9.7 2.5 4.3 0.9 8.8 2.2 10 3 1.3 0.8 2.8 2.5 3.4 3.7 0.9 1.7 0.7 13.6-0.5 46.8-0.9 24.5-2.5 69.7-3.6 100.5-1.1 30.8-2.1 60-2.3 65-0.3 6-1.1 10.5-2.4 13.5-1.1 2.5-2.9 5.3-3.9 6.2-1 1-5.1 2.4-8.9 3.3-3.8 0.9-7.7 2-8.5 2.4-0.8 0.5-1.5 2.1-1.5 3.7v2.9c44.2 0.4 58 0.3 59.2 0q2.3-0.5 2.3-2.8c0.1-1.2-0.5-2.7-1.2-3.3-0.7-0.6-4.5-1.7-8.3-2.4-5.5-1-7.7-2-10.1-4.4-1.8-1.7-3.7-5.1-4.4-7.6-0.9-3.3-1.1-9.8-0.6-24 0.4-10.7 1.6-43.6 2.6-73 1.1-29.4 2.5-67.2 3.1-84 0.6-16.8 1.5-31 2-31.5q0.9-1 1.9 0c0.5 0.5 3.4 10.9 6.4 23 3 12.1 7.7 31.2 10.5 42.5 2.7 11.3 10.6 43.5 17.6 71.5 6.9 28 14.6 59.5 17.1 70 3.7 15 5.2 19.5 7 21.2 1.7 1.7 3 2.1 4.5 1.5 1.2-0.4 2.5-1.4 3-2.2 0.4-0.8 6.9-26.3 14.4-56.5 7.4-30.3 19.4-78.9 26.6-108 7.2-29.1 13.7-55.4 14.5-58.3 0.9-3.3 1.9-5.2 2.9-5.2 0.9 0 1.7 1.2 1.9 3.2 0.3 1.8 0.7 15.2 1 29.8 0.3 14.6 1.3 48.5 2.1 75.5 0.9 27 1.9 61.4 2.3 76.5 0.4 15.1 0.5 29.1 0.2 31-0.3 2.3-1.4 4.1-3.5 5.5-1.7 1.1-6.4 2.6-10.5 3.2-5.1 0.9-8.1 1.9-9.5 3.3-1.6 1.7-1.8 2.5-0.9 3.8 1 1.5 4.6 1.7 37.8 1.9 35.7 0.3 36.6 0.3 37.6-1.7 0.8-1.5 0.6-2.5-0.8-4-1.1-1.3-4-2.4-8.7-3.2-3.8-0.6-8.2-1.7-9.8-2.5-1.5-0.7-3.1-2.1-3.6-3.1-0.5-0.9-1.2-5.1-1.5-9.2-0.4-4.1-1.3-28.6-2.1-54.5-0.9-25.9-2.2-66.1-3-89.5-0.8-23.4-1.7-49.7-2.1-58.5-0.3-10.3-0.2-16.9 0.5-18.5 0.6-1.4 2.8-3.3 4.8-4.2 2.1-1 6.4-2.2 9.5-2.8 3.2-0.5 6.7-1.5 7.8-2 1.2-0.6 2-2 2-3.5 0-1.8-0.7-2.7-2.3-3-1.2-0.4-13.4-0.5-27-0.3l-24.9 0.3c-3.8 4.4-9.6 26.2-27.8 98.9-13.4 53.3-24 94.1-24.8 94.5-0.7 0.3-1.4 0.4-1.7 0.1-0.3-0.3-10.6-42.1-23-93-12.3-50.9-23-93.6-23.7-94.9-0.7-1.3-2.6-3.3-4.3-4.3-2.7-1.6-5.5-1.8-28.5-1.7-14 0-26.2 0.3-26.9 0.6zm-776.4 359c-1 1.1-9.5 33.6-21.1 80.3-10.7 43.2-22.5 90.7-26.1 105.5-3.7 14.8-7.6 29.2-8.6 32-1.1 2.7-3.1 6.3-4.7 7.8-1.7 1.7-5.2 3.5-9.2 4.6-3.6 1-6.9 2.5-7.4 3.2-0.5 0.8-0.6 2.2-0.3 3.1 0.7 1.7 2.8 1.8 27.4 1.5l26.8-0.2c0.4-3.6-0.2-4.9-1.3-5.4-0.9-0.5-4.4-1.4-7.7-2-4.6-0.8-6.6-1.8-8.8-4.1-2.2-2.5-2.7-3.9-2.7-8.3 0-3.1 2.6-15.1 6.5-30.2 5.8-22.8 6.7-25.2 9.4-27.8l3.1-2.7h43c5.3 5.2 6.4 8.8 12.5 33.5 3.7 15.4 6.8 29.7 6.9 31.7 0.1 2.4-0.6 4.4-1.7 5.5-1.1 1.1-4.5 2.2-8.9 2.8-4.7 0.7-7.5 1.6-8.2 2.7-0.8 1.2-0.7 2 0.4 3.3 1.4 1.4 7.5 1.6 64 1.6 56.5 0 62.6-0.2 64-1.6 1.1-1.3 1.2-2.1 0.4-3.3q-1.1-1.7-12.5-4c-6.3-1.2-12.4-2.9-13.7-3.7-1.2-0.8-2.6-3.2-3.2-5.3-0.6-2.2-1-21.3-1-46.5v-42.7l5.5-6.3c15.5 0.8 21.7 1.6 23.7 2.2 2.1 0.6 5.7 2.8 8 4.8 2.4 2.3 5.2 6.2 6.8 9.8 1.5 3.3 3.6 9.4 4.7 13.5 1.2 4.1 3.1 12.2 4.2 18 1.2 5.8 3.4 16.6 5 24 1.6 7.4 3.8 16 5 19 1.1 3 3.5 7.7 5.4 10.5 1.8 2.7 5.4 6.5 7.8 8.3 2.4 1.9 6.6 4 9.4 4.8 2.7 0.8 7.5 1.4 10.5 1.4 3 0 7.7-0.6 10.5-1.5 3.4-1 9.2-1.5 18-1.4 9.4 0 13.4-0.4 14.3-1.3 0.6-0.7 1-2.1 0.7-3.1-0.3-0.9-1.5-1.9-2.8-2.2-1.2-0.3-4.5-1-7.2-1.6-2.8-0.6-5.8-1.5-6.8-2-0.9-0.5-2.4-2.6-3.3-4.7-1.1-2.6-1.4-5-0.9-8.2 0.4-2.5 3.4-15.1 6.7-28 3.3-12.9 6.4-24.3 6.9-25.3 0.5-0.9 1.9-2.4 3.1-3.2 1.9-1.2 6.2-1.5 23-1.5 14.6 0 21.5 0.4 23.3 1.2 1.4 0.7 3.2 2.6 4 4.3 0.9 1.7 4.5 14.9 8 29.5 3.6 14.6 6.5 28.2 6.5 30.2 0 2.1-0.7 4.5-1.5 5.3-0.8 0.8-2.5 1.7-3.8 2-1.2 0.3-4.4 0.8-7.1 1.2-2.7 0.5-5.3 1.5-5.9 2.3-0.5 0.8-0.7 2.3-0.4 3.2 0.7 1.7 3.1 1.8 32.2 1.8 29.1 0 31.5-0.1 32.2-1.8 0.3-0.9 0.2-2.3-0.3-3.1-0.5-0.7-3.6-2.1-6.9-3-3.3-1-7-2.3-8.3-2.9-1.2-0.7-3.1-3-4.2-5.2-1.1-2.2-14.2-52.7-29.1-112.3-19.7-78.9-27.5-108.7-28.9-110.2-1.7-1.7-2.3-1.8-4.5-0.8-1.4 0.7-2.7 2.1-3 3-0.2 1-4.2 17.3-8.9 36.3-4.7 19-14.8 60.2-22.6 91.5-7.8 31.3-15.7 63.3-17.6 71-1.9 7.7-4.4 16-5.5 18.5-1.1 2.5-3 5.5-4.2 6.8-1.2 1.2-2.9 2.2-3.7 2.2-0.8 0-3-1.3-4.8-3-1.7-1.6-4.5-5.8-6.1-9.3-1.5-3.4-3.8-10.2-4.9-15.2-1.2-5-3.3-14.4-4.7-21-1.4-6.6-3.5-15.6-4.7-20-1.1-4.4-3.2-10.3-4.6-13-1.3-2.8-4.1-7-6.1-9.5-2-2.4-6.4-6.2-9.9-8.5-3.5-2.2-6.1-4.5-5.9-5 0.2-0.5 4.4-3 9.3-5.4 7.2-3.6 10.5-6.1 17.5-13 6.9-7 9.3-10.2 12.6-17.1 2.3-4.7 4.6-10.9 5.2-13.8 0.6-2.8 1.1-8.7 1.1-13 0-4.2-0.4-10.2-1-13.2-0.5-3-2.6-8.9-4.7-13-2.6-5.5-5.6-9.4-11-14.8-5.4-5.4-9.4-8.2-15.6-11.2-4.5-2.2-11.4-4.7-15.2-5.6-5.6-1.3-14.9-1.7-46-2.1-26.9-0.3-39.9-0.1-41.8 0.6-1.7 0.7-2.7 1.8-2.7 3.1 0 1.1 0.8 2.4 1.7 2.9 1 0.4 5.2 1.6 9.3 2.4 4.8 1.1 8.2 2.4 9.5 3.8 2 2.1 2 3.7 2.2 104.8 0.2 80.9 0 103.1-1 105.1-0.8 1.6-3 3.1-6.2 4.3-2.9 1-7.1 1.6-10.2 1.5-3.3-0.2-6.1-1-8-2.4-1.5-1.1-3.8-4-5.1-6.5-1.4-2.7-12.8-46.7-29.2-112.4-20.4-81.8-27.3-108.3-28.7-109.3-1-0.7-2.3-1.2-2.9-1.2-0.6 0-1.8 0.8-2.7 1.8zm642.5 0c-1 0.9-3.1 7.3-4.9 14.7-1.8 7.1-10.9 43.8-20.2 81.5-9.3 37.7-19.7 79.5-23.1 93-3.3 13.5-6.7 26.3-7.6 28.5-0.9 2.2-2.7 5.5-4 7.3-1.3 1.7-3.9 3.6-5.7 4.1-1.7 0.6-5.1 1.5-7.5 2-2.5 0.7-4.4 1.8-4.7 2.9-0.3 0.9 0.1 2.3 0.7 3 1 1 7.2 1.3 27 1.2 23.5 0 25.9-0.2 26.8-1.7 0.7-1.3 0.5-2.2-0.8-3.5-0.9-0.9-4-1.9-6.7-2.3-2.8-0.4-6.2-1.4-7.8-2.1-1.5-0.8-3.4-2.7-4.2-4.4-0.8-1.7-1.5-4.3-1.5-6 0-1.7 2.9-14.8 6.5-29.2 5.9-23.8 6.8-26.6 9.5-29l3-2.8h43c5.7 5.3 6.6 7.9 13 34 3.9 15.7 7 30 7 31.8 0 2.3-0.7 3.7-2.8 5.2-1.5 1.1-5.1 2.2-8.2 2.5-3 0.4-6.1 0.9-6.8 1.3-0.7 0.4-1.2 1.8-1 3.2l0.3 2.5c96.1 0.4 125 0.3 126.2 0 1.3-0.3 2.3-1.3 2.3-2.2 0.1-1-0.5-2.3-1.2-3-0.7-0.6-5.4-1.9-10.3-2.8-4.9-1-10.6-2.3-12.5-3.1-1.9-0.7-4.1-2.5-4.8-3.9-0.9-1.9-1.2-13.5-1.2-47.5v-45c5.4-5.3 5.7-5.3 15.5-4.9 7.5 0.4 11.2 1.1 14.7 2.7 2.7 1.2 6.2 3.7 7.9 5.5 1.7 1.7 4.2 5.5 5.5 8.2 1.3 2.8 3.4 9.3 4.8 14.5 1.3 5.2 4 17.6 6.1 27.5 2 9.9 4.5 21.3 5.6 25.3 1 3.9 3.2 9.8 4.8 13 1.6 3.1 4.5 7.4 6.5 9.5 2 2 6 4.9 8.8 6.4 3.9 1.9 7.3 2.7 12.8 3.1 4.6 0.3 9.1-0.1 11.5-0.8 2.2-0.8 10.7-1.6 19-1.9 14.6-0.6 15-0.7 15.2-2.8 0.2-1.4-0.4-2.7-1.5-3.2-0.9-0.5-4.4-1.4-7.7-2-4.6-0.8-6.6-1.8-8.8-4.1-2.2-2.5-2.7-3.9-2.7-8.2 0-3.2 2.7-15.5 6.5-30.3 5.8-22.8 6.6-25.2 9.4-27.8l3.1-2.7h43c5.3 5.2 6.4 8.6 12.5 33.5 3.7 15.4 6.8 29.7 6.9 31.8 0.1 2.7-0.5 4.4-1.9 5.6-1.1 0.9-4.7 2-8 2.4-3.3 0.4-6.9 1.4-8 2.2-1.6 1.1-1.8 1.7-0.9 3.2 1 1.7 3.3 1.8 32.5 1.8h31.4c0.5-5.2 0.1-5.6-3.8-6.6-2.3-0.5-5.5-1.4-7.2-1.9-1.7-0.5-4.1-2.1-5.5-3.7-1.4-1.5-3.1-4.1-3.8-5.8-0.6-1.7-12.9-50-27.2-107.5-14.4-57.5-26.5-106.2-27-108.3-0.6-2-1.9-4.2-3-4.7-1.4-0.7-2.7-0.6-4.3 0.3-1.9 1.2-3.6 6.8-12.5 42.8-5.7 22.8-17.5 70.3-26.3 105.7-8.7 35.3-16.8 66.6-17.9 69.5-1.1 2.8-3.3 6.4-4.8 8-1.5 1.5-3.3 2.7-4 2.7-0.6 0-2.7-1.3-4.5-2.9-1.7-1.5-4.4-5.5-5.9-8.7-1.5-3.2-3.6-9.5-4.7-13.9-1.1-4.4-3.6-15.7-5.6-25-1.9-9.3-4.3-19.3-5.2-22-0.8-2.8-2.8-7.5-4.3-10.5-1.5-3-5.2-7.8-8.1-10.6-3-2.8-7.1-6-9.2-7-2-1.1-3.7-2.6-3.7-3.4 0-0.9 3.2-3 7.7-5.2 4.3-2.1 10.7-6.1 14.3-9.1 3.6-2.9 8.6-8.2 11.2-11.7 2.5-3.6 5.8-9 7.2-12 1.4-3 3.3-9.5 4.3-14.5 1.4-7.8 1.5-10.3 0.4-18.5-0.9-7.4-2-11.3-5.1-17.8-2.8-5.6-5.8-10-9.8-14-3.1-3.2-8.4-7.4-11.7-9.3-3.3-2-9.2-4.7-13-6.1-4.4-1.6-11.2-3-18-3.7-6.1-0.6-25.3-1.1-42.8-1.1-18.8 0-32.7 0.4-34.2 1-1.4 0.5-2.5 1.8-2.5 2.7-0.1 1 0.5 2.3 1.2 3 0.7 0.6 4.2 1.7 7.8 2.3 3.6 0.7 7.4 1.6 8.5 2.1 1.1 0.5 2.7 2 3.5 3.2 1.3 1.9 1.5 15.3 1.7 102.7 0.2 64.4-0.1 101.8-0.7 104.3-0.8 2.9-1.8 4-4.8 5.3-2 0.9-6 1.9-8.7 2.1-3.8 0.4-6.1 0.1-9.8-1.6-3.9-1.8-5.1-2.9-7.2-7.4-1.3-2.9-14-51.9-29-112.2-22.3-89.4-27-107.3-28.8-108.8-1.2-1-2.5-1.8-3-1.7-0.4 0-1.5 0.8-2.5 1.7zm-836.1 2.3c-1.5 0.6-2.4 1.7-2.3 2.7 0 1 0.7 2.3 1.4 3 0.7 0.6 4.2 1.7 7.8 2.3 3.6 0.7 7.7 1.8 9.2 2.6 1.7 0.8 3.2 2.7 3.8 4.6 0.7 2.2 1 38 1 102.3 0 62.4-0.4 100.4-1 102.8-0.6 2-1.9 4.2-3 4.7-1.1 0.5-5 1.7-8.8 2.5-3.7 0.9-7.5 1.8-8.5 2-1.2 0.4-1.6 1.3-1.5 3.3l0.3 2.7h75c0.4-4.7 0-5.6-1.3-6-0.9-0.2-6.2-1.4-11.7-2.5-5.5-1.1-11-2.7-12.3-3.5-1.2-0.8-2.7-2.6-3.2-4-0.6-1.5-1-19.1-1-45.2 0-32.3 0.3-43.1 1.2-44 0.9-1 6-1.3 18.7-1.3 14.3 0 19.2-0.4 26.1-2.1 4.7-1.1 11.2-3.5 14.5-5.2 3.3-1.8 9.1-6.2 13-9.8 5-4.8 8.2-8.9 11.1-14.5 2.3-4.4 5-11.1 6-14.9 1.1-4.5 1.7-10.7 1.7-17.5 0-7.6-0.6-12.8-2.2-19-1.2-4.7-3.7-11.2-5.4-14.5-1.8-3.5-6.3-9.1-10.7-13.5-5.2-5.2-9.5-8.5-14-10.7-3.6-1.7-8.5-3.8-11-4.6-2.5-0.9-9.2-2-15-2.6-5.8-0.6-25.1-1.1-43-1-17.9 0-33.6 0.4-34.9 0.9zm642 0c-1.6 0.6-2.4 1.6-2.3 3 0.1 1.1 1 2.4 1.9 2.9 1 0.4 5.3 1.6 9.5 2.5 6.3 1.3 8.2 2.1 9.8 4.4 2.1 2.7 2.1 3.7 2 105.5v102.7c-3.8 3.9-7 5.2-12 6.4-4.1 0.9-8.4 2.3-9.5 3.1-1.6 1.1-1.8 1.7-0.9 3.2 1 1.7 3.6 1.8 37.8 2.1 34 0.2 36.7 0.1 37.6-1.5 0.6-1.2 0.5-2.3-0.3-3.5-0.8-1.1-5-2.3-12.2-3.7-6.3-1.2-12.1-2.9-13.5-3.9-1.4-1.1-2.8-3.2-3.1-4.8-0.4-1.6-0.7-21.7-0.8-44.6-0.1-36.8 0.1-42 1.5-43.3 1.2-1.2 4.9-1.5 19.2-1.5 14.7 0 19-0.3 25.7-2.1 4.4-1.1 11.1-3.7 15-5.7 4.2-2.3 9.6-6.4 13.7-10.4 5-5 7.9-9 10.8-15 2.2-4.6 4.7-11.5 5.5-15.3 0.8-3.8 1.5-10.6 1.5-15 0-4.4-0.5-10.7-1.1-14-0.6-3.3-2.4-9.4-4-13.5-1.6-4.1-5.3-10.6-8.2-14.4-3.3-4.5-7.7-8.7-12.2-11.8-3.8-2.7-10.4-6.2-14.5-7.7-4.8-1.9-11.1-3.3-17.8-4-5.6-0.6-25.2-1.1-43.5-1-18.2 0-34.3 0.4-35.6 0.9z"/><path fill-rule="evenodd" class="a" d="m916.5 606.1c-5 0.5-15.3 2-23 3.4-7.7 1.4-18.5 3.7-24 5.1-5.5 1.4-15.6 4.4-22.5 6.6-6.9 2.2-16.3 5.6-21 7.5-4.7 1.9-13.9 6.2-20.5 9.5-6.6 3.3-16.2 8.5-21.4 11.7-5.1 3.1-9.5 5.8-9.6 6.1-0.2 0.3 1.2 0.4 3.1 0.2 2.5-0.1 4.1 0.5 5.9 2.3 1.6 1.6 2.5 3.6 2.5 5.7 0 1.8-0.5 3.9-1.2 4.5-0.7 0.7-1.1 1.4-0.8 1.6 0.3 0.2 3.4-1.4 7-3.5l6.5-3.8c-6.2 0-8.2-0.7-9.5-2-1.3-1.3-2-3.4-2-5.8 0-2.6 0.6-4.4 2.2-5.9 1.4-1.4 3.6-2.3 5.5-2.3 2.2 0 4.1 0.8 5.8 2.5 1.4 1.4 2.5 3.7 2.5 5.2 0.1 1.6-0.8 3.9-1.8 5.3-1.7 2.3-1.3 2.2 6.1-1.5 7.9-3.9 7.9-4 4.3-4.3-2.6-0.1-4.2-1-5.7-3-1.6-2-1.9-3.6-1.5-6.2 0.3-1.9 1.6-4.3 2.8-5.3 1.3-1 3.4-1.8 4.8-1.8 1.4 0 3.6 0.9 5 1.9 1.4 1 2.8 3.2 3.3 4.8 0.6 2.2 0.2 3.7-1.3 6.1l-2 3.3c8.1-3.8 15.2-6.7 21-8.9 6.7-2.6 9.5-4 7.7-4.1-1.5 0-3.8-1.1-5.2-2.5q-2.5-2.5-2.5-5.8c0-1.7 0.6-3.9 1.3-4.8 0.7-0.9 2.2-2.1 3.4-2.7 1.3-0.7 3.7-1 5.3-0.7 1.6 0.3 3.7 1.5 4.5 2.7 0.8 1.3 1.5 3.8 1.5 5.5 0 2.2-0.9 4.2-2.5 5.8-1.9 1.9-2.1 2.4-0.8 2 1-0.2 6.5-1.7 12.3-3.3 5.8-1.6 16.6-4.1 24-5.6 7.4-1.4 19.1-3.3 26-4.1 7.4-0.9 20.8-1.5 32.8-1.5 11.1 0 24.6 0.5 30 1.1 5.3 0.5 15.1 1.9 21.7 3 6.6 1.1 16.5 3.1 22 4.5 5.5 1.3 14.3 3.8 19.5 5.5 5.2 1.7 14.5 5.1 20.5 7.6 6 2.4 17.1 7.6 24.5 11.4 7.4 3.8 18.5 10.1 24.5 14 6 4 14.6 9.9 19 13.2 4.4 3.3 12.3 9.8 17.5 14.3 5.2 4.5 13.6 12.4 18.6 17.6 5 5.1 12.4 13.3 16.5 18.3 4.1 5 10.4 13.3 14 18.5 3.6 5.2 8.7 13 11.3 17.2 2.5 4.3 7 12.6 10 18.5 3 6 7.2 15.3 9.4 20.8 2.3 5.5 5.6 15.2 7.5 21.5 1.9 6.3 4.4 15.8 5.5 21 1.1 5.2 2.5 13.3 3.1 18 0.5 4.7 1.3 11.1 1.6 14.2l0.5 5.8c6.8 0 7-0.2 6.4-2.8-0.4-1.5-0.4-3.9 0-5.5 0.4-1.9 1.7-3.2 4.1-4.2 3.1-1.3 3.9-1.3 7 0 2.4 1 3.7 2.3 4.1 4.2 0.4 1.6 0.4 4.3 0 6-0.5 3-0.4 3.3 1.6 3 2-0.2 2.3-0.7 2-3.7-0.2-1.9-1.4-8.9-2.8-15.5-1.3-6.6-3.8-17-5.5-23-1.7-6-5.4-17.3-8.2-25-4.6-12.7-5.2-13.7-5.9-11-0.5 1.6-1.6 3.8-2.6 4.8-1 1.1-3.1 1.8-5.5 1.7-2.3 0-4.4-0.7-5.7-2q-2-2-2-6c0-3.2 0.5-4.4 2.7-6 1.6-1.2 3.9-2.1 5.3-2 1.4 0 3.5 0.7 4.8 1.5 1.9 1.3 1.6 0.3-2.1-7.8-2.4-5-6.1-12.3-8.2-16.2-2.1-3.9-5.9-10.4-8.3-14.5-2.5-4.1-7-11.2-10.1-15.8-3.1-4.5-5.6-8.2-5.6-8.2 0 0 0.2 1 0.4 2.3 0.2 1.2 0.1 3.4-0.3 4.9-0.4 1.7-1.7 3.4-3.6 4.3-1.7 0.8-4.3 1.3-6 1-1.7-0.3-3.7-1.5-4.5-2.8-0.8-1.2-1.5-3.7-1.5-5.5 0-1.9 0.8-4 2-5.2 1.1-1.1 3-2.3 4.2-2.6 1.3-0.3 3.3-0.1 4.5 0.5 1.3 0.6 2.5 1.1 2.8 1.1 0.3 0-0.9-1.9-2.5-4.3-1.7-2.3-4.2-5.6-5.6-7.2-1.9-2.3-2.2-2.4-1.5-0.8 0.6 1.3 0.9 3.5 0.6 5-0.2 1.6-1.4 3.7-2.6 4.8-1.3 1.2-3.5 2-5.6 2-2.5 0-4.1-0.7-5.9-2.8-1.3-1.5-2.4-3.6-2.4-4.7 0-1.1 0.6-3.1 1.2-4.5 0.7-1.4 2.6-3.1 4.3-3.7 2.3-0.9 3.7-0.9 5.7 0 1.6 0.7 2.8 0.9 2.8 0.4 0-0.4-2.6-3.4-5.8-6.8-3.1-3.3-5.4-5.5-4.9-5 0.4 0.6 0.7 2.3 0.7 3.8 0 1.7-1.1 4-2.9 5.8-1.8 1.8-4 3-5.5 3-1.4 0-3.8-1.1-5.4-2.4-2-1.8-2.7-3.3-2.7-6.1 0-2.9 0.7-4.2 3-6.2 2.5-2.1 3.6-2.4 7-1.9l4 0.7c-13.2-13.4-21.5-21.2-27-26-5.5-4.8-12.9-11-16.5-13.8-3.6-2.8-10.3-7.7-15-11-4.7-3.2-13.5-8.9-19.5-12.5-6-3.6-14.8-8.5-19.5-10.8-4.7-2.4-13.6-6.5-19.8-9.1-6.1-2.7-11.4-4.9-11.7-4.9-0.3 0 0.6 1.1 2 2.5 1.4 1.4 2.5 3.7 2.5 5.2 0.1 1.6-0.8 4-2 5.5-1.6 2.3-2.8 2.8-6 2.8q-4 0-6-2c-1.3-1.3-2-3.4-2-5.8 0-2.6 0.6-4.4 2.2-5.9 1.3-1.3 3.4-2.3 4.8-2.3 1.9 0 2.2-0.3 1-0.9-0.8-0.5-7.8-2.7-15.5-5-7.7-2.2-18.5-4.9-24-6.1-5.5-1.1-14.7-2.7-20.5-3.6-6.8-1-19.8-1.7-37-1.9-14.6-0.2-30.5 0.1-35.5 0.6zm1347.3 20.2c-3.1 1.2-7.7 3.7-10.2 5.4-2.5 1.8-6.7 6.1-9.2 9.5-2.6 3.5-6.4 9.9-8.5 14.3-2 4.4-4.9 12-6.3 17-1.3 5-3.2 13-4 18-0.8 5-2 13.7-2.6 19.5-0.5 5.8-1 22.9-1 38 0 15.1 0.5 32.2 1 38 0.6 5.8 1.9 15.6 3 21.7 1.1 6.2 3.6 16.1 5.6 22 2 6 5.4 13.9 7.7 17.8 2.2 3.9 6.6 9.6 9.6 12.8 3.6 3.7 8 7 12.1 9 5.6 2.8 7.5 3.2 14.5 3.2 6 0 9.6-0.6 14.5-2.4 5.2-2 8-3.9 13.6-9.5 5.7-5.7 8.1-9 11.7-16.6 2.5-5.2 5.8-13.5 7.2-18.5 1.4-5 3.5-14.4 4.5-21 1.1-6.6 2.5-19 3.1-27.5 0.7-9.1 0.9-25.4 0.6-39.5-0.3-13.2-1.3-29.4-2.2-36-0.9-6.6-2.7-16.7-4.1-22.5-1.3-5.8-3.3-12.9-4.4-15.8-1.1-2.8-3.3-7.8-4.9-11-1.6-3.1-4.6-8-6.7-10.8-2.2-2.9-6.1-7-8.9-9.3-2.9-2.3-7.6-4.9-11.2-6.1-3.7-1.2-8.9-2-12.5-1.9-4 0-8.4 0.8-12 2.2zm-1218.8 0.9c-0.8 0.7-1.3 2.3-1.2 3.8 0 1.4 0.7 3.1 1.4 3.8 0.7 0.7 2.6 1.1 4.3 1 2.2-0.2 3.2-1 4-3 0.8-2.2 0.6-3.1-1-4.8-1.1-1.1-2.9-2.1-4-2-1.2 0-2.7 0.5-3.5 1.2zm520.5-0.2c-3.3 0.4-8.5 2-11.5 3.4-3 1.5-7 4.2-8.8 5.9-1.9 1.8-5.3 5.9-7.7 9.2-2.4 3.3-13.9 21.1-25.7 39.5-12.2 19.1-21.7 35-22.1 37-0.6 3.1 0.3 5.3 7.4 19 4.5 8.5 10 18.9 12.2 23 2.2 4.1 5.4 10.2 7.2 13.5 1.8 3.3 5.3 9.8 7.8 14.5 2.5 4.7 7.4 13.9 10.9 20.5 3.5 6.7 10.8 20.6 16.3 30.9 5.5 10.4 11.2 20.2 12.8 21.7 1.5 1.6 4.6 3.4 7 4 2.3 0.6 6.8 0.8 10.2 0.5 3.3-0.4 7.5-1.6 9.3-2.6 2.2-1.4 3.5-3.2 4.2-5.8 0.6-2.4 0.9-43.3 0.7-114.7-0.2-103.9-0.3-111.3-1.9-113.8-1.2-1.8-3.4-3.2-6.5-4.1-2.7-0.7-7.3-1.6-10.3-1.9-3-0.3-8.2-0.2-11.5 0.3zm-722.4 1.3c-1.3 0.7-2.6 2.4-2.8 3.7-0.2 1.5 0.3 3.2 1.4 4.3 1 1 2.5 1.8 3.3 1.8 0.8 0 2.3-0.8 3.3-1.8 1-1 1.6-2.9 1.5-4.2-0.2-1.3-1.2-3-2.3-3.7-1.7-1.1-2.5-1.1-4.4-0.1zm1231.9-0.6c-1.4 0.2-3.9 0.9-5.5 1.5-1.7 0.6-4.5 2.2-6.3 3.5-1.7 1.2-4.2 4.2-5.5 6.5l-2.2 4.3c-0.5 171.9-0.3 206.7 0.4 210.2 0.7 3.2 2.2 6.5 3.8 8.4 1.6 1.8 4.4 4 6.3 4.9 1.9 1 6.2 2.1 9.5 2.5 3.6 0.4 9.1 0.2 13.5-0.5 4.3-0.7 10.6-2.7 14.7-4.6 5-2.3 9.3-5.4 13.6-9.7 3.5-3.4 8.2-9.3 10.5-13.2 2.3-3.9 5.3-9.9 6.7-13.5 1.4-3.6 3.7-10.8 5-16 1.3-5.2 3.2-14.5 4.2-20.5 1.5-8.9 1.8-16.9 1.8-42 0-24.8-0.4-33.3-1.8-42.5-1-6.3-2.9-15.8-4.2-21-1.3-5.2-3.6-12.6-5-16.5-1.5-3.9-4.2-9.7-6-13-1.9-3.3-5.3-8.3-7.7-11.1-2.4-2.9-5.7-6.3-7.3-7.7-1.7-1.4-5.9-3.9-9.5-5.6-3.6-1.6-9.4-3.5-13-4-3.6-0.6-8.1-1-10-1-1.9 0.1-4.6 0.4-6 0.6zm-1267.7 15.9c-1.5 2.1-1.6 2.9-0.6 5 0.9 1.7 2.1 2.4 4.1 2.4 1.5 0 3.3-0.6 4-1.3 0.7-0.6 1.2-2.4 1.2-4 0-1.7-0.7-3.1-2-3.7-1.1-0.5-2.7-1-3.5-1-0.8 0-2.3 1.2-3.2 2.6zm103.2 6c-5.5 0.7-15.9 2.5-23 4-7.2 1.4-18.6 4.3-25.5 6.3-6.9 2.1-17.9 5.9-24.5 8.6-6.6 2.6-17 7.3-23 10.4-6.1 3.1-15.3 8.4-20.5 11.6-5.2 3.3-14.9 10-21.5 14.9-6.9 5.2-18.6 15.6-27.6 24.6-8.6 8.5-18.5 19.3-22.1 24-3.6 4.7-8.5 11.4-11 15-2.5 3.6-7.8 12.1-11.7 19-3.9 6.9-9.2 17.5-11.8 23.5-2.5 6-5.9 14.8-7.5 19.5-1.6 4.7-4 12.8-5.3 18-1.3 5.2-3.1 13.8-4 19-0.8 5.2-1.5 9.8-1.5 10.2 0 0.5 123.5 0.8 274.5 0.8h274.5c-0.8-5-1.5-9.4-2.1-13-0.5-3.6-2.1-10.8-3.4-16-1.3-5.2-4-14.2-6-20-2-5.8-6.9-17.3-10.9-25.5-4-8.3-9.9-19.3-13.1-24.5-3.3-5.2-10-14.9-14.9-21.5-5.2-6.9-15.4-18.4-24.1-27.1-8.2-8.3-18.8-18.1-23.5-21.8-4.7-3.7-14.6-10.8-22-15.8-7.4-4.9-21.6-13-31.5-17.9-11.3-5.5-23.6-10.7-33-13.8-8.3-2.7-20.4-6.1-27-7.6-6.6-1.5-18.5-3.5-26.5-4.6-10.9-1.4-20.3-1.8-37.5-1.8-13.2 0.1-27.3 0.7-33 1.5zm-120.4 1.6c-0.6 0.7-1 2.6-0.9 4.2 0.2 1.6 1 3.3 1.8 3.9 0.8 0.5 2.7 0.7 4.2 0.3 2-0.4 3-1.4 3.4-3.4 0.4-1.9 0-3.2-1.3-4.5-1-1-2.8-1.8-3.9-1.7-1.2 0-2.7 0.6-3.3 1.2zm-24.1 10.2l-6.5 4.4c6.1 1 8.1 2.1 9 3.4 0.8 1.3 1.5 3.7 1.5 5.3 0 1.6-0.7 4-1.5 5.2-1.1 1.7 0.5 1 5.5-2.5 3.9-2.6 7.1-4.7 7-4.7 0 0-1.7-0.1-3.8-0.1-2.6-0.1-4.2-0.8-5.5-2.5-1-1.3-1.8-4-1.7-5.9 0-1.9 0.8-4.3 1.6-5.3 0.9-0.9 1.5-1.7 1.3-1.7-0.3 0-3.3 2-6.9 4.4zm8.6-0.7c-0.9 1-1.5 2.9-1.4 4.2 0.2 1.3 1.2 3 2.3 3.7 1.6 1.1 2.5 1.1 4.5 0.1 1.5-0.7 2.6-2.3 2.8-3.7 0.2-1.4-0.5-3.3-1.5-4.3-1-1-2.5-1.8-3.4-1.7-0.9 0-2.4 0.8-3.3 1.7zm-14.6 9.6c-1.5 0.8-2.6 2.3-2.7 4-0.2 2 0.4 3.1 2.2 4.2 2.2 1.3 2.8 1.3 5 0 1.8-1.1 2.4-2.2 2.2-4.1-0.1-1.5-1.1-3.3-2.2-4-1.7-1.1-2.5-1.1-4.5-0.1zm-11 3.8c-3 2.2-5.3 4.2-5.2 4.4 0.1 0.3 1 0.3 1.9 0 1-0.3 3-0.1 4.5 0.5 1.6 0.5 3.5 2.4 4.3 4 1 1.9 1.2 4 0.8 5.7-0.7 2.7-0.6 2.7 5-1.7 3.2-2.5 5.8-4.6 5.7-4.8 0-0.1-1 0.1-2.3 0.4-1.2 0.3-3.3 0.1-4.7-0.5-1.4-0.6-3.1-2.1-3.8-3.3-0.8-1.3-1.2-3.8-1-5.6 0.2-1.7 0.4-3.2 0.3-3.2 0 0-2.5 1.8-5.5 4.1zm-14 12.4c-2.5 2.5-4 4.5-3.3 4.5 0.7 0 2.4 0.6 3.8 1.2 1.4 0.7 3 2.4 3.6 3.8 0.6 1.4 0.9 3.7 0.7 5.1-0.2 2.2 0 2.5 1.2 1.6 0.8-0.6 3.2-2.6 5.2-4.4l3.8-3.3c-5 0-6.9-0.9-8.6-2.8-2.1-2.2-2.5-3.4-2.1-6.5 0.2-2 0.4-3.7 0.3-3.7-0.1 0-2.1 2-4.6 4.5zm8-2.6c-0.6 1.1-1.1 2.7-1.1 3.5 0.1 0.9 1.2 2.3 2.6 3.1 1.4 0.8 3.4 1.3 4.5 1 1.2-0.3 2.3-1.7 2.6-3.3 0.4-1.5 0.2-3.4-0.3-4.2-0.6-0.8-2.4-1.6-4.1-1.8-2.2-0.2-3.3 0.2-4.2 1.7zm-15 12.3c-0.8 0.7-1.3 2.1-1.2 3.3 0.1 1.1 0.6 2.5 1 3.1 0.4 0.6 1.5 1.4 2.4 1.7 1 0.4 2.7 0.2 3.8-0.3 1.1-0.5 2.2-1.9 2.5-3 0.3-1.1 0-2.9-0.5-4-0.6-1.3-2-2-3.8-2-1.5 0-3.4 0.5-4.2 1.2zm-8.6 4.7l-3.9 4.1c4.3 0 6.7 1.1 8.2 2.4 2.1 1.8 2.8 3.4 2.8 6v3.5c7.4-7.3 9.5-9.5 9.5-9.7 0-0.1-1.5 0.1-3.3 0.4-2.4 0.4-3.9 0-6-1.5-1.9-1.5-2.8-3.2-3-5.7l-0.3-3.7zm-4.5 9.1c-1.1 1.1-2 2.6-2 3.3 0 0.7 0.6 2 1.3 2.9 0.7 0.8 1.9 1.8 2.7 2.1 0.9 0.4 2.5 0 3.8-0.8 1.5-1 2.2-2.4 2.2-4.5q0-3-2-4c-1.1-0.5-2.4-1-3-1-0.5 0-1.9 0.9-3 2zm-9.2 5.4l-3.8 4.6c5.1 0 7.7 0.8 9 1.9 1.9 1.4 2.5 2.9 2.5 5.5 0 1.9 0.3 3.2 0.6 2.8 0.4-0.3 2.2-2.5 4.2-4.7l3.5-4c-5.4 0-7.5-0.8-8.8-2-1.1-1.1-2.4-3.5-2.8-5.3l-0.7-3.4zm466.8-0.8c-1 0.8-1.7 2.5-1.6 3.7 0 1.2 0.6 2.8 1.3 3.5 0.7 0.7 2.5 1.2 4 1.2 1.7 0 3.1-0.7 3.8-2 0.5-1.1 1-2.4 1-3 0-0.5-0.9-1.9-2-3-1.1-1.1-2.7-2-3.5-2-0.8 0-2.1 0.7-3 1.6zm-471 10c-1 0.8-1.7 2.3-1.7 3.2 0.1 0.9 0.9 2.5 1.9 3.4 0.9 1 2.7 1.8 3.8 1.8 1.1 0 2.6-0.6 3.3-1.2 0.6-0.7 1.2-2.4 1.2-3.8 0-1.4-0.6-3.1-1.3-3.8-0.7-0.7-2.2-1.2-3.4-1.2-1.2 0-2.9 0.7-3.8 1.6zm-8.5 5.7c-1.6 2.3-3 4.4-3 4.7 0 0.3 1.2 0.4 2.7 0.2 1.7-0.2 3.7 0.4 5.3 1.6 1.3 1.1 2.9 3.4 3.5 5l1 3 6.5-8.8c-5.1 0.1-7.6-0.7-8.9-1.7-1.2-1-2.7-3.2-3.2-5l-0.9-3.1zm491.9-0.4c-1.1 1.1-1.9 2.6-1.9 3.3 0 0.7 0.6 2 1.2 2.9 0.7 1 2.5 1.8 4 1.8 1.8 0 3.2-0.8 4.2-2.2 0.8-1.3 1.2-2.9 0.8-3.8-0.3-0.8-1.3-2-2.1-2.7-0.9-0.7-2.2-1.3-2.9-1.3-0.7 0-2.2 0.9-3.3 2zm-495 10c-1.1 1.1-2 2.6-2 3.3 0 0.7 0.6 2.1 1.3 3.1 0.7 1.1 2.4 1.8 4.2 1.8 1.7 0 3.4-0.6 3.8-1.3 0.4-0.8 0.8-2.6 1-4.1 0.2-2.3-0.3-3-2.5-3.8-1.5-0.5-3-1-3.3-1-0.2 0-1.4 0.9-2.5 2zm-8.4 6.1c-1.4 2.2-2.6 4.2-2.6 4.4 0 0.3 1.3 0.5 2.8 0.5 1.5 0 3.8 0.8 5.1 1.7 1.2 1 2.6 3.3 3 5.2l0.6 3.3c5.1-7.1 6.5-9.3 6.5-9.4 0-0.2-1.2-0.1-2.7 0.1-1.7 0.2-3.8-0.5-5.5-1.8-1.5-1.1-3.2-3.4-3.7-5l-0.9-2.9zm515.5-1.6c-1.5 1-2.3 2.5-2.2 4.1 0.1 1.4 1.1 3 2.6 3.9 2.2 1.3 2.8 1.3 5 0 1.6-1 2.5-2.4 2.5-4 0-1.5-0.9-3.1-2.2-4-1.3-0.8-2.5-1.5-2.8-1.5-0.3 0-1.6 0.7-2.9 1.5zm-519.1 10.7c-0.8 0.7-1.3 2.3-1.2 3.7 0.1 1.4 0.7 3.2 1.4 3.9 0.7 0.7 2.3 1.2 3.5 1.2 1.2 0 2.9-0.7 3.7-1.5 0.9-0.8 1.6-2.4 1.6-3.5 0-1.1-0.7-2.7-1.5-3.5-0.8-0.8-2.5-1.5-3.8-1.5-1.3 0-2.9 0.5-3.7 1.2zm-7.3 7.8l-2.7 4.5c7.1 1 9.1 2.1 10.3 3.6 1 1.3 1.8 3.5 1.8 4.9-0.1 2.3 0.1 2.3 2-1 1.2-1.9 3-5.1 4.2-7 1.1-1.9 1.4-2.9 0.7-2.3-0.8 0.7-3 1.3-4.9 1.3-2.5 0-4.3-0.7-5.7-2.2-1.2-1.3-2.4-3.2-2.6-4.3-0.3-1.6-0.9-1.1-3.1 2.5zm-2.6 9.2c-0.6 0.7-1 2.6-0.9 4.2 0.2 1.6 1 3.3 1.8 3.9 0.8 0.5 2.7 0.7 4.3 0.3 1.9-0.4 2.9-1.4 3.3-3.4 0.4-1.9 0-3.2-1.3-4.5-1-1-2.8-1.8-3.9-1.7-1.2 0-2.7 0.6-3.3 1.2zm-8.3 10.2l-2.8 5.6c5.6-2.3 6.5-2.3 8.8-1 1.5 0.9 3.4 2.9 4.3 4.5l1.6 3c5-10.1 5.9-12.4 5.2-11.8-0.7 0.7-3 1.3-5.1 1.3-2.4 0-4.4-0.7-5.5-1.8-1-1.1-2.2-2.7-2.8-3.6-0.8-1.5-1.4-0.9-3.7 3.8zm-0.8 8.6c-1.1 1.1-2 2.4-2 3 0 0.5 0.5 1.9 1 3q1 2 4 2 3 0 4.5-2.3c0.8-1.2 1.5-2.5 1.5-3 0-0.4-0.9-1.6-2-2.7-1.1-1.1-2.7-2-3.5-2-0.8 0-2.4 0.9-3.5 2zm-7.9 8.4c-1.2 2.8-2.1 5.3-2.1 5.6 0 0.3 1.8 0.4 4 0.2 3.3-0.2 4.5 0.3 6.5 2.5 1.4 1.6 2.6 3.9 2.6 5.3 0 1.4-0.9 3.7-2.1 5.2-1.5 2.2-2.8 2.8-5.7 2.8-2.1 0-4.8-0.7-6-1.5-1.3-0.8-2.3-2.2-2.3-3 0-0.8-0.3-1.5-0.7-1.5-0.5 0-1.9 3-3.2 6.7-1.3 3.8-2.7 7.5-3 8.3-0.3 1 0.5 0.6 2.4-0.9 2.4-1.8 3.8-2.2 6.8-1.7 2.8 0.5 4.1 1.3 5.2 3.6 0.8 1.6 1.5 3.9 1.5 5 0 1.1-1.3 3.3-3 5-2.4 2.5-3.6 2.9-6.2 2.5-1.8-0.3-4.2-1.5-5.3-2.6-1.2-1.2-2-3.3-2-5.3 0-1.9-0.1-3.4-0.2-3.3-0.1 0.1-1.7 5.4-3.6 11.7-1.9 6.3-4.2 14.6-5.1 18.5-1 3.8-2.6 11.7-3.7 17.5-1 5.8-1.9 10.8-1.9 11.2 0 0.5 5.1 0.8 11.3 0.8h11.2c1.9-17.8 3.4-27.8 4.5-33.8 1.2-5.9 3.6-16.1 5.5-22.7 1.9-6.6 5.2-16.5 7.4-22 2.1-5.5 4.3-10.8 4.7-11.8 0.9-1.8 0.8-1.8-2.3-0.3-1.9 0.9-4.3 1.3-5.5 1-1.3-0.4-2.9-1.2-3.7-1.8-0.8-0.6-2-2.3-2.6-3.7l-1.3-2.6zm-0.4 9.8q-1.8 1.3-1.5 4.2c0.2 1.6 1 3.3 1.8 3.9 0.8 0.5 2.8 0.7 4.3 0.3 1.6-0.4 2.9-1.5 3.2-2.6 0.3-1.1-0.2-3.1-1-4.5-0.8-1.4-2.3-2.5-3.3-2.5-0.9 0-2.5 0.5-3.5 1.2zm582.9-0.1c-1.2 0.6-1.9 1.9-1.8 3.7 0.1 1.5 0.7 3.2 1.4 4 0.7 0.7 2.7 1.1 4.3 1 2.2-0.3 3.3-1 4-3 0.8-2.2 0.7-3.1-1-4.8-1.1-1.2-2.7-2.1-3.5-2-0.8 0-2.3 0.5-3.4 1.1zm-590 22c-1.2 0.6-1.9 1.9-1.8 3.7 0.1 1.5 0.8 3.2 1.5 3.9 0.7 0.7 2.5 1.3 4 1.3 1.7 0 3.1-0.8 3.7-2 0.6-1.1 1-2.5 1-3 0-0.6-0.9-1.9-2-3-1.1-1.1-2.5-2-3.2-2-0.7 0-2.1 0.5-3.2 1.1zm608.4 52.1c-0.7 0.6-1.3 2.2-1.2 3.5 0.1 1.2 1.3 3 2.7 3.8 2.2 1.3 2.8 1.3 5 0 1.5-0.9 2.5-2.5 2.5-3.8 0-1.2-0.5-2.8-1.2-3.5-0.7-0.7-2.4-1.2-3.8-1.2-1.4 0-3.2 0.5-4 1.2zm-630.5 28.5c-0.4 1.5-0.9 66.1-1.1 143.5l-0.4 140.8c4.6 0 4.9-0.4 4.4-2.3-0.3-1.2 0.1-3.6 0.9-5.2 0.8-1.7 2.2-3.4 3.1-3.8 0.9-0.4 2.7-0.7 4.1-0.7 1.4 0 3.3 0.3 4.2 0.7 0.9 0.4 2.3 2.1 3.1 3.8 0.8 1.6 1.1 4 0.8 5.2-0.5 2-0.2 2.3 2.4 2.3h3c0-244-0.2-261.7-1.5-269.5-0.9-5-2.6-10.8-3.8-13l-2.2-4-16.2-0.6zm74.5 79.3v82c38.8 0 53.5-0.5 57.8-1.1 4.2-0.6 11.1-2.3 15.2-3.8 4.1-1.5 10.2-4.5 13.5-6.6 3.3-2.1 8.5-6.4 11.5-9.5 3-3.1 7.1-8.3 9-11.6 1.9-3.2 4.9-9.7 6.7-14.4 1.7-4.7 3.9-13.2 4.7-19 0.9-5.8 1.6-15 1.6-20.5 0-5.5-0.7-14.5-1.5-20-0.8-5.5-2.1-12-2.9-14.5-0.8-2.5-2.4-6.8-3.6-9.5-1.2-2.8-4.1-7.7-6.4-11-2.4-3.3-6.7-7.9-9.7-10.2-3-2.2-7.6-5.2-10.4-6.6-2.7-1.4-7.5-3.2-10.5-4.1-4.6-1.4-11.1-1.6-40.2-1.6h-34.8zm115-79c4.7 1.7 11.4 4.7 15 6.7 3.6 2 9.4 5.9 13 8.7 3.6 2.9 8.6 7.9 11.1 11.1 2.6 3.3 6 8.8 7.8 12.2 1.7 3.5 4.1 10 5.3 14.5 1.7 6.6 2.2 11.1 2.2 21.8 0.1 11-0.4 15-2.2 22-1.3 4.7-3.6 11-5.1 14-1.5 3-4.5 8.2-6.8 11.5-2.2 3.3-7.1 8.9-10.9 12.5-3.8 3.6-9.4 8.1-12.4 10.1-3 2-8.2 5-11.5 6.6-3.3 1.7-10 4.4-15 6.1-4.9 1.6-12.4 3.7-16.5 4.5-4.1 0.9-11.5 2.1-16.5 2.6-4.9 0.6-23.3 1.1-40.7 1.1h-31.8v118h500v-118c-67.4-0.7-76.2-1-83.5-2.5-4.9-0.9-12.8-2.8-17.5-4.1-4.7-1.4-13.4-4.9-19.5-7.9-6.2-3.1-14.4-8.2-19-11.8-4.4-3.5-10.4-9.5-13.3-13.3-3-3.8-7.1-10.5-9.2-14.9-2.1-4.4-4.6-10.7-5.5-14-0.9-3.3-1.9-11.2-2.2-17.5-0.3-6.8-0.1-14.6 0.6-19 0.7-4.1 2.3-10.7 3.7-14.5 1.3-3.9 3.9-9.4 5.7-12.4 1.7-3 5.7-8.1 8.7-11.4 3-3.3 8.2-7.9 11.5-10.2 3.3-2.4 8.5-5.5 11.5-7 3-1.6 8.9-4.1 13-5.6l7.5-2.8-286-0.1zm306.5-0.3c-3.8 1.4-9.9 4.4-13.4 6.7-3.6 2.2-8.4 6.3-10.8 9.1-2.4 2.7-6.2 8.6-8.3 13-2.2 4.4-5 11.8-6.2 16.5-2 7.5-2.2 10.9-2.2 29.5 0 18.8 0.2 21.8 2.3 29.5 1.3 4.6 3.1 10.7 4.2 13.5 1 2.7 4 8.3 6.7 12.5 2.7 4.1 7.5 9.9 10.8 12.8 3.2 3 8.6 6.9 11.9 8.7 3.3 1.8 8.9 4.2 12.5 5.3 3.6 1.2 9.4 2.6 13 3.1 3.6 0.6 18.1 1.1 32.3 1.1h25.7v-164l-71.5 0.1zm133.6 1c-1 2.1-2.7 7.6-3.7 12.3-1.7 7.9-1.9 16.9-2.1 139.7l-0.3 131.3h8c0-7.2 0.6-8.4 2.8-10 1.5-1.2 3.9-2.1 5.5-2 1.5 0 3.8 1.1 5.2 2.5 1.9 1.9 2.4 3.4 2.3 6-0.2 2.2 0.1 3.5 1 3.5 1 0 1.2-28.1 1.2-137.3 0-75.4-0.3-140-0.7-143.5l-0.8-6.2h-16.5zm209.9 76.2c-1.3 0.4-3.5 1.2-4.7 1.9-1.3 0.6-2.9 2.5-3.8 4.1-1.3 2.6-1.4 9.8-1.2 49 0.2 45 0.3 45.9 2.4 48.7 1.1 1.6 3.1 3.6 4.5 4.6 1.3 1 4.8 2.3 7.8 2.9 4.2 0.9 7.4 1 13.5 0.1 4.9-0.7 10.3-2.3 14-4.1 3.6-1.8 8-5.1 11-8.3 2.8-3 6.2-7.9 7.7-10.9 1.4-3 3.3-8.2 4.2-11.5 0.9-3.3 2-10.7 2.3-16.5 0.5-7.9 0.2-12.9-1.2-20.5-1.2-6.7-2.9-12.2-5.3-17-2-3.8-5.6-9-8.1-11.5-2.5-2.5-7-5.7-10.1-7.2-3-1.5-7.9-3.2-11-3.8-3-0.5-8.6-0.9-12.5-0.9-3.8 0.1-8.1 0.5-9.5 0.9zm265.1 0.3c-1.9 0.7-4.3 2.5-5.5 4.1-2 2.7-2.1 4-2.4 41-0.2 21 0 40.4 0.3 43.1 0.3 2.8 1.5 6.6 2.8 8.5 1.2 1.9 3.8 4.4 5.7 5.5 3 1.7 5.2 2 14.5 2 9.2 0 12-0.4 17-2.4 4.3-1.7 7.8-4.1 12.1-8.5 3.3-3.3 7.3-8.5 8.7-11.6 1.5-3 3.5-8.4 4.4-12 1.2-4.4 1.7-10.4 1.7-19 0.1-10-0.4-13.9-2.1-19.5-1.2-3.8-3.9-9.7-6.1-13-2.3-3.5-6.4-7.7-9.8-10.3-3.2-2.3-8.3-5.2-11.4-6.3-3.9-1.5-8.5-2.2-16-2.5-6.8-0.2-11.7 0.1-13.9 0.9zm376.9-0.3c-1.9 0.5-4.8 2.3-6.5 4l-3 3.1c0 91 0.1 92.5 2.1 95.9 1.1 2 3.8 4.6 6 5.8 2.5 1.4 6.5 2.5 10.9 2.9 5.1 0.4 8.9 0.1 13.5-1.1 3.6-0.9 8.5-2.6 10.9-3.9 2.4-1.2 6.5-4.4 9.2-7.2 2.7-2.7 6.3-7.4 7.9-10.5 1.6-3 3.9-9.1 5-13.5 1.5-5.9 2.1-11.1 2.1-20.5 0-8.9-0.6-14.6-1.9-20-1.1-4.1-3.1-9.7-4.4-12.5-1.4-2.7-4.7-7.4-7.4-10.3-3.2-3.6-7.2-6.5-11.9-8.8-6.4-3.2-7.8-3.5-18-3.9-6-0.2-12.5 0-14.5 0.5zm265.2 0.5c-1.8 0.7-4.2 2.6-5.3 4.2-1.9 2.7-1.9 4.6-1.9 45.1 0 35.3 0.3 42.8 1.5 45.7 0.9 2.1 3.3 4.7 5.7 6.3 3.9 2.6 4.9 2.7 15.3 2.7 8.6 0 12.2-0.4 16.4-2 2.9-1.1 7.4-3.5 9.9-5.5 2.5-1.9 6.3-5.9 8.3-9 2.1-3 5-9.1 6.5-13.5 2-5.9 2.8-10.7 3.2-19 0.3-6.6 0-13.7-0.7-18-0.7-3.8-2.5-9.7-4-13-1.5-3.3-4.8-8.2-7.3-11-2.4-2.7-7.1-6.4-10.4-8.1-3.2-1.8-8.6-3.9-11.9-4.8-3.3-0.9-9.6-1.5-14-1.5-4.4 0-9.5 0.6-11.3 1.4zm-771.4 42.6c-0.4 0.8-5.5 20.6-11.3 43.9-5.9 23.4-10.5 43.9-10.3 45.5l0.3 3c39.1 0.6 41.2 0.4 42.6-1.2 1.4-1.6 1.1-3.9-4.6-28.3-3.5-14.5-8.2-34.6-10.5-44.5-2.4-9.9-4.5-18.4-4.9-18.9-0.3-0.5-0.9-0.3-1.3 0.5zm268.1 44.3c-10.2 40.8-11.2 45.6-9.9 47.1 1.4 1.5 3.8 1.6 21.9 1.3 16.8-0.2 20.6-0.5 21.4-1.8 0.7-1-0.6-8.4-4.7-26-3.2-13.4-7.9-33.8-10.5-45.2-2.6-11.4-5.3-20.8-5.8-20.8-0.6 0-6.2 20.5-12.4 45.4zm371.8-35.6c-1.4 5.4-6.5 25.6-11.4 45-6.9 27.7-8.5 35.7-7.7 37 1 1.5 3.5 1.8 21 2 16.1 0.2 20.3 0 21.9-1.1 2-1.5 2-1.5-0.3-11.3-1.3-5.4-5-20.7-8.2-33.9-3.2-13.2-6.9-29.2-8.3-35.7-1.3-6.5-2.9-11.8-3.4-11.8-0.6 0-2.2 4.4-3.6 9.8zm282.1-8.7c-0.4 0.8-5.5 20.6-11.3 43.9-5.9 23.4-10.7 43.7-10.6 45 0 1.4 0.6 2.9 1.3 3.3 0.7 0.4 10 0.7 20.6 0.7 10.6 0 19.9-0.2 20.7-0.5 0.9-0.3 1.5-1.7 1.5-3.5 0-1.6-2.7-14.3-6-28.2-3.2-13.9-7.8-33.1-10.1-42.8-2.3-9.6-4.4-17.9-4.8-18.4-0.3-0.5-0.9-0.3-1.3 0.5zm-1890.5 157.5c-1.4 2-1.5 3-0.7 4.3 0.8 1.1 2.5 1.6 5 1.6 3.6 0 3.9-0.2 4.2-3 0.2-1.6-0.3-3.5-1-4.3-0.7-0.7-2.3-1.2-3.5-1.2-1.2 0-3 1.2-4 2.6zm629.4-1.3c-1.2 0.8-1.7 2.2-1.5 4.2 0.3 2.8 0.7 3.1 4.6 3.3 3.8 0.2 4.3 0 4.7-2.3 0.3-1.6-0.2-3.3-1.2-4.5-1-1.1-2.5-2-3.3-2-0.8 0-2.3 0.6-3.3 1.3zm-29.7-407.8c0 2.6-0.7 4.7-1.9 6-1.9 2-1.9 2 1.9 2 2.4 0 4.6 0.8 6 2 1.1 1.1 2.1 1.7 2.1 1.3-0.1-0.4-1.7-3.8-3.7-7.5-2-3.7-3.8-7-4-7.3-0.2-0.2-0.4 1.3-0.4 3.5z"/><path class="b" d="m932.3 609.4c-2.1 1.8-2.8 3.2-2.8 5.9 0 2.5 0.7 4.4 2.3 5.9q2.3 2.3 5.8 2.3c2.6 0 4.2-0.7 6-2.7 1.3-1.6 2.4-3.7 2.4-4.8 0-1.1-0.5-3-1-4.2-0.6-1.3-2.1-2.9-3.5-3.5-1.4-0.7-3.4-1.3-4.4-1.3-1.1 0-3.2 1.1-4.8 2.4zm-19.3 1.2c-1.2 1.5-2.2 3.9-2.1 5.5 0.1 1.6 1.2 4 2.6 5.4 1.4 1.4 3.7 2.5 5.3 2.5 1.5 0.1 3.9-0.8 5.5-2 2.1-1.5 2.7-2.8 2.7-5.7 0-2.4-0.7-4.6-2-6-1.4-1.7-3.1-2.3-5.9-2.3-3.1 0-4.5 0.6-6.1 2.6zm37 0c-1.2 1.5-2.2 3.9-2.1 5.5 0.1 1.6 1.2 4 2.6 5.4 1.4 1.4 3.7 2.5 5.3 2.5 1.5 0.1 3.9-0.8 5.5-2 2.2-1.6 2.7-2.8 2.7-6q0-4-2-6c-1.3-1.3-3.3-2-5.9-2-3.1 0-4.5 0.6-6.1 2.6zm19.3-0.2c-2.1 1.8-2.8 3.2-2.8 5.9 0 2.5 0.7 4.4 2.3 5.9q2.3 2.3 5.8 2.3c2.6 0 4.2-0.7 6-2.7 1.3-1.6 2.4-3.7 2.4-4.8 0-1.1-0.5-3-1-4.2-0.6-1.3-2.1-2.9-3.5-3.5-1.4-0.7-3.4-1.3-4.4-1.3-1.1 0-3.2 1.1-4.8 2.4zm-73.3 1c-0.8 0.7-2.1 2.6-2.8 4.2-1.1 2.4-1.1 3.4 0 5.8 0.7 1.6 2.1 3.3 3.1 3.7 0.9 0.5 3.1 0.9 4.7 0.9 2 0 4-0.9 5.5-2.5 1.6-1.5 2.5-3.7 2.5-5.5 0-1.9-0.9-3.9-2.5-5.5q-2.5-2.5-5.7-2.5c-1.8 0-4 0.6-4.8 1.4zm92 1.2c-2.2 1.8-3.1 3.4-3.1 5.5 0.1 1.6 0.4 3.6 0.9 4.5 0.4 0.9 1.9 2.3 3.5 3 1.5 0.8 3.5 1.4 4.5 1.4 0.9 0.1 2.9-0.8 4.5-2 2-1.5 2.7-2.8 2.7-5.5 0-1.9-0.3-4.2-0.7-5.1-0.5-0.9-2-2.3-3.5-3-1.6-0.8-3.4-1.4-4.2-1.4-0.8 0-2.8 1.2-4.6 2.6zm-112 3.7c-1.7 1.6-2.3 3.3-2.2 5.5 0.1 1.9 1.2 4.2 2.7 5.7 1.4 1.4 3.7 2.5 5.3 2.5 1.5 0.1 3.9-0.8 5.5-2 2.2-1.6 2.7-2.8 2.7-6q0-4-2-6c-1.3-1.3-3.3-2-5.8-2-2.7 0-4.6 0.7-6.2 2.3zm130 0.7c-1.3 1.3-2 3.4-2 5.8 0 2.6 0.6 4.4 2.2 5.9 1.4 1.4 3.6 2.3 5.6 2.3 2.2 0 4.1-0.8 5.7-2.5 1.4-1.4 2.5-3.7 2.5-5.2 0.1-1.6-0.8-4-2-5.5-1.6-2.3-2.8-2.8-6-2.8q-4 0-6 2zm-147.7 3.4c-2.1 1.8-2.8 3.2-2.8 6.1 0 2.8 0.7 4.3 2.8 6.1 1.5 1.3 3.9 2.4 5.3 2.4 1.5 0 3.7-1.2 5.5-3 1.6-1.7 2.9-4.1 2.9-5.5 0-1.4-1.3-3.8-3-5.5-1.7-1.7-4.1-3-5.4-3-1.4 0-3.7 1.1-5.3 2.4zm168.2-1.2c-1.1 0.6-2.6 1.8-3.3 2.7-0.7 0.9-1.2 3-1.2 4.6 0 1.6 0.6 3.7 1.3 4.6 0.7 0.9 2.2 2.1 3.5 2.7 1.2 0.7 3.5 1 5.2 0.7 1.7-0.3 3.7-1.5 4.5-2.7 0.8-1.3 1.5-3.8 1.5-5.5 0-2.2-0.9-4.2-2.5-5.8-1.4-1.4-3.5-2.5-4.7-2.5-1.3 0-3.2 0.6-4.3 1.2zm-202 11.8c-1.2 0.5-2.6 1.8-3.3 2.9-0.7 1.2-1.2 3.2-1.2 4.6 0 1.4 0.4 3.3 0.9 4.3 0.4 0.9 2.1 2.3 3.7 3.1 2.5 1.1 3.4 1.1 6.3 0 1.8-0.8 3.8-2.2 4.2-3.1 0.5-1 0.9-3 0.9-4.5 0.1-1.6-0.7-3.8-1.7-5-1-1.3-3.1-2.5-4.8-2.8-1.6-0.2-3.9 0-5 0.5zm237.6 2.5c-2.4 2-3.2 3.4-3.1 5.8 0 1.8 0.8 4.2 1.8 5.5 0.9 1.2 3.3 2.5 5.2 2.9 2.9 0.5 4 0.2 6.3-2 1.8-1.8 2.7-3.8 2.7-5.9 0.1-1.8-0.7-4.3-1.7-5.5-1-1.3-3.2-2.6-4.8-2.9-2.4-0.4-3.8 0-6.4 2.1zm17.5 8.6c-2.3 1.6-2.8 2.8-2.7 6 0.1 2.7 0.8 4.5 2.4 5.9 1.4 1.3 3.6 2 6 2 2.9 0 4.2-0.6 5.7-2.7 1.2-1.6 2.1-4 2-5.5 0-1.6-1.1-3.9-2.5-5.3-1.5-1.5-3.6-2.5-5.3-2.5-1.6 0-4.1 0.9-5.6 2.1zm16.4 9.8c-1.6 1.6-2.9 4.1-2.9 5.5-0.1 1.6 1 3.7 2.9 5.6 2.5 2.5 3.6 2.9 6.3 2.5 1.7-0.3 4.1-1.5 5.2-2.6 1.3-1.2 2-3.3 2-5.5 0-2.6-0.7-4.2-2.7-6-1.6-1.3-4-2.4-5.4-2.4-1.5 0-3.7 1.2-5.4 2.9zm16.3 10.4c-1.1 1.2-2.3 3.2-2.7 4.5-0.3 1.2 0 3.4 0.8 5 0.7 1.5 2.1 3 3 3.5 0.9 0.4 3.2 0.7 5.1 0.7 2.6 0 4-0.7 5.6-2.7 1.6-2.1 1.9-3.7 1.5-6.3-0.3-1.9-1.6-4.3-2.8-5.3-1.3-1-3.7-1.8-5.4-1.7-1.9 0-3.9 0.9-5.1 2.3zm14.7 11c-1.7 1.6-2.3 3.3-2.2 5.5 0.1 1.9 1.2 4.2 2.7 5.7 1.6 1.6 3.6 2.5 5.5 2.5 2 0 4-0.9 5.5-2.5 1.6-1.6 2.5-3.7 2.5-5.7 0-2.1-0.8-4.1-2.2-5.5-1.5-1.5-3.5-2.3-5.9-2.3-2.4 0-4.3 0.8-5.9 2.3zm14.5 12.2c-1.3 1.3-2.4 3.7-2.5 5.2 0 1.5 0.8 4 2 5.6 1.5 2 2.8 2.7 5.5 2.7 1.9 0 4.4-0.5 5.5-1 1.1-0.5 2.5-2.4 3-4q1-3 0-5.5c-0.5-1.4-2-3.2-3.2-4-1.3-0.8-3.6-1.5-5.1-1.5-1.6 0-3.8 1-5.2 2.5zm15 13c-1.5 1.5-2.4 3.6-2.5 5.7 0 2.2 0.7 4 2.2 5.4 1.3 1.2 3.1 2.4 4.1 2.8 0.9 0.3 3 0.1 4.7-0.4 1.7-0.5 3.5-1.9 4-3 0.6-1.1 1-3.4 1-5 0-1.9-0.9-3.9-2.5-5.5-1.6-1.6-3.6-2.5-5.5-2.5-2 0-4 0.9-5.5 2.5zm51 58.9c-1.7 0.7-3.3 2-3.7 2.9-0.5 0.9-0.8 3.2-0.8 5 0 2 0.8 4 2.2 5.4 1.4 1.4 3.6 2.3 5.6 2.3 2.2 0 4.1-0.8 5.7-2.5 1.6-1.5 2.5-3.7 2.5-5.5 0-1.7-1-4-2.2-5.4-1.3-1.3-3.2-2.7-4.3-3-1.1-0.3-3.3 0.1-5 0.8zm7 18.1c-1.3 1.3-2.4 3.7-2.5 5.2 0 1.5 0.8 4 2 5.6 1.5 2.1 2.8 2.7 5.8 2.7 2.6 0 4.4-0.6 5.9-2.2q2.3-2.3 2.3-6c0-3-0.6-4.2-2.7-5.8-1.6-1.2-4.1-2.1-5.6-2-1.6 0-3.8 1-5.2 2.5zm8.7 15.3c-1.7 1.7-3.1 4.2-3.1 5.6-0.1 1.6 1 3.7 2.9 5.6 1.7 1.7 4.1 3 5.5 3 1.4 0 3.7-1.1 5.3-2.4 2-1.8 2.7-3.4 2.7-6 0-2.2-0.7-4.3-2-5.5-1.1-1.1-3.4-2.3-5.2-2.7-2.6-0.5-3.6-0.1-6.1 2.4zm12.8 33.8c-1.2 1.5-2.2 3.9-2.1 5.5 0.1 1.6 1.2 4 2.6 5.4 1.4 1.4 3.7 2.5 5.3 2.5 1.5 0.1 3.9-0.8 5.5-2 2.1-1.5 2.7-2.8 2.7-5.7 0-2.7-0.6-4.5-2.2-6-1.5-1.5-3.5-2.3-6-2.3-2.8 0-4.2 0.6-5.8 2.6zm8.4 16.4c-1.1 0.5-2.8 2.4-3.8 4.2-1.4 2.6-1.5 3.9-0.7 6.1 0.6 1.5 2.1 3.4 3.4 4.3 1.5 1 3.4 1.4 6 1 2.8-0.5 4-1.3 5.2-3.6 0.8-1.6 1.5-3.9 1.5-5 0-1.1-1-3.1-2.2-4.5-1.3-1.3-3.4-2.6-4.8-2.9-1.4-0.3-3.4-0.1-4.6 0.4zm-609.4 10.3c-1.7 1.7-2.3 3.3-2.2 5.8 0.1 2.1 1 4.3 2.4 5.6 1.4 1.4 3.6 2.3 5.6 2.3 2.2 0 4.1-0.8 5.7-2.5 1.6-1.5 2.5-3.7 2.5-5.5 0-1.9-0.9-3.9-2.5-5.5q-2.5-2.5-5.8-2.5c-2.2 0-4.2 0.8-5.7 2.3zm612.4 8.7c-1.2 0.5-2.9 1.9-3.8 3.2-0.9 1.3-1.6 3.1-1.6 4.1 0 0.9 0.5 2.7 1 4 0.6 1.2 2.1 2.8 3.5 3.5 1.4 0.6 3.4 1.2 4.5 1.2 1.1 0 3.2-1.1 4.8-2.4 2-1.8 2.7-3.4 2.7-6 0-2.2-0.7-4.3-2-5.5-1.1-1.1-3.1-2.2-4.5-2.5-1.4-0.3-3.5-0.1-4.6 0.4zm-613.9 12.4c-1.6 0.7-3.3 2-3.7 2.9-0.5 0.9-0.8 3.1-0.8 4.7 0 1.9 0.9 3.9 2.5 5.5 1.6 1.6 3.6 2.5 5.5 2.5 2 0 4-0.9 5.5-2.5 1.6-1.6 2.5-3.7 2.5-5.7 0-1.9-0.8-4.3-2-5.5-1.1-1.3-2.5-2.3-3-2.3-0.5 0-1.6-0.2-2.2-0.5-0.7-0.2-2.6 0.1-4.3 0.9zm-7 43.1c-1.3 1.3-2.4 3.3-2.5 4.5 0 1.1 0.6 3.2 1.4 4.8 0.7 1.5 2.1 3 3 3.5 0.9 0.4 2.7 0.7 4.1 0.7 1.4 0 3.2-0.3 4.1-0.7 0.9-0.5 2.3-2 3-3.5 0.8-1.6 1.2-4.1 0.9-5.8-0.3-1.6-1.5-3.7-2.7-4.5-1.3-0.8-3.8-1.5-5.6-1.5-2.2 0-4.1 0.8-5.7 2.5zm628.5-0.2c-1.7 1.7-2.3 3.3-2.2 5.8 0.1 2.1 1 4.3 2.4 5.6 1.4 1.4 3.6 2.3 5.6 2.3 2.2 0 4.1-0.8 5.7-2.5 1.6-1.5 2.5-3.7 2.5-5.5 0-1.9-0.9-3.9-2.5-5.5q-2.5-2.5-5.8-2.5c-2.2 0-4.2 0.8-5.7 2.3zm-628 22.6c-1.6 1.6-2.9 4.1-2.9 5.5-0.1 1.4 1 3.8 2.3 5.4 1.8 2 3.3 2.7 6 2.7 2.2-0.1 4.4-0.9 5.6-2 1.1-1.1 2.2-3.5 2.5-5.2 0.4-2.7 0-3.8-2.5-6.3-1.8-1.8-4-3-5.6-3-1.5 0-3.7 1.2-5.4 2.9zm628.7-0.6c-1.7 1.7-2.6 3.7-2.7 5.9 0 1.8 0.7 4.3 1.5 5.6 0.8 1.2 2.8 2.4 4.5 2.7 1.7 0.3 4 0 5.2-0.7 1.3-0.6 2.8-1.8 3.5-2.7 0.7-0.9 1.3-2.9 1.3-4.6 0.1-1.6-0.7-4-1.7-5.3-1-1.3-3.4-2.5-5.4-2.8-3.1-0.5-4.1-0.2-6.2 1.9zm-627.4 21.4c-0.7 0.3-2 1.8-2.8 3.4-0.8 1.6-1.3 4.2-1 5.9 0.3 1.7 1.5 3.7 2.7 4.5 1.3 0.8 3.6 1.5 5.3 1.5 1.6 0 4-0.7 5.2-1.5 1.3-0.8 2.5-2.8 2.8-4.5 0.3-1.6-0.1-4.2-0.9-5.7-0.7-1.6-2.1-3.1-3-3.5-0.9-0.5-2.8-0.8-4.4-0.7-1.5 0-3.3 0.3-3.9 0.6zm626.7 1.6c-1.7 1.7-2.3 3.3-2.2 5.8 0.1 2.1 1 4.3 2.4 5.6q2.3 2.3 6 2.3c3 0 4.2-0.6 5.8-2.7 1.2-1.6 2.1-4 2-5.5 0-1.6-1.1-3.9-2.5-5.3q-2.5-2.5-5.8-2.5c-2.2 0-4.2 0.8-5.7 2.3zm-625.6 20.7c-1.2 0.5-2.9 1.9-3.8 3.2-0.9 1.3-1.6 3.3-1.6 4.6 0 1.2 1.3 3.6 3 5.2 1.8 1.8 4 3 5.6 3 1.5 0 3.7-1.2 5.5-3 2.4-2.4 2.8-3.6 2.4-6.2-0.3-1.8-1.3-4.1-2.3-5-0.9-0.9-2.8-1.9-4.2-2.2-1.4-0.3-3.5-0.1-4.6 0.4zm628.1 0.2c-1.1 0.6-2.6 1.8-3.3 2.7-0.7 0.9-1.2 3.1-1.2 4.9 0 2.2 0.9 4 2.7 5.9 2.3 2.2 3.4 2.5 6.3 2 1.9-0.4 4.3-1.7 5.3-2.9 1-1.3 1.8-3.8 1.7-5.5 0-2.4-0.8-4-3-5.8-1.7-1.4-3.8-2.5-4.8-2.5-0.9 0-2.6 0.6-3.7 1.2zm-630.5 24.7c-1.6 1.6-2.9 3.7-2.9 4.5-0.1 0.9 0.3 2.7 0.9 4.1 0.5 1.4 2.5 3.2 4.2 4.1 3.1 1.6 3.5 1.6 6.7-0.2 2.1-1.2 3.8-3.1 4.4-4.9 0.6-2 0.5-3.9-0.2-5.5-0.6-1.4-2.2-3.1-3.6-3.7-1.4-0.7-3.4-1.3-4.6-1.3-1.1 0-3.3 1.3-4.9 2.9zm628.5-0.4c-1.4 1.4-2.4 3.6-2.5 5.5 0 1.6 0.4 3.9 1 5 0.5 1.1 2.3 2.5 4 3 1.9 0.6 3.9 0.7 5.6 0.1 1.4-0.6 3.2-2 4-3.3 0.8-1.3 1.4-3.5 1.4-5 0-1.6-1.1-3.9-2.5-5.3-1.6-1.6-3.6-2.5-5.5-2.5-2 0-4 0.9-5.5 2.5zm-628.3 22c-1.2 0.8-2.4 2.8-2.7 4.5-0.3 1.7 0.1 4.2 0.9 5.8 0.7 1.5 2.1 3 3 3.5 0.9 0.4 2.7 0.7 4.1 0.7 1.4 0 3.2-0.3 4.1-0.7 0.9-0.5 2.3-2 3-3.5 0.8-1.6 1.2-4.1 0.9-5.8-0.3-1.7-1.5-3.7-2.8-4.5-1.2-0.8-3.6-1.5-5.2-1.5-1.7 0-4 0.7-5.3 1.5zm627.8 0.8c-1.8 1.7-2.3 3.3-2.2 6 0.2 2.7 0.9 4.2 2.9 5.7 1.6 1.2 4.1 2.1 5.6 2 1.6 0 3.8-1 5.2-2.5 1.4-1.4 2.5-3.7 2.5-5.2 0.1-1.6-0.8-4-2-5.5-1.6-2.2-2.8-2.8-5.8-2.8-2.7 0-4.6 0.7-6.2 2.3zm-628 22.6c-1.6 1.6-2.9 4.1-2.9 5.5-0.1 1.6 1 3.7 2.9 5.6 1.7 1.7 4.1 3 5.5 3 1.4 0 3.6-1 5-2.2 1.4-1.3 2.7-3.8 3-5.5 0.4-2.7-0.1-3.9-2.5-6.3-1.8-1.8-4-3-5.6-3-1.5 0-3.7 1.2-5.4 2.9zm630.5-1.9c-1.2 0.5-2.6 1.8-3.3 2.9-0.7 1.2-1.2 3.3-1.2 4.9 0 1.5 0.7 3.7 1.5 5 0.8 1.2 2.8 2.4 4.5 2.7 1.7 0.3 4 0 5.2-0.7 1.3-0.6 2.8-1.8 3.5-2.7 0.7-0.9 1.2-2.9 1.2-4.6 0-1.7-0.5-3.7-1.2-4.6-0.7-0.9-2.2-2.1-3.5-2.7-1.2-0.7-2.8-1.2-3.5-1.1-0.6 0-2.1 0.4-3.2 0.9zm-629.2 22.7c-0.7 0.3-2 1.8-2.8 3.4-0.8 1.6-1.3 4.2-1 5.9 0.3 1.7 1.5 3.7 2.7 4.5 1.3 0.8 3.6 1.5 5.3 1.5 1.6 0 4-0.7 5.2-1.5 1.3-0.8 2.5-2.8 2.8-4.5 0.3-1.7-0.1-4.2-0.9-5.7-0.7-1.6-2.1-3.1-3-3.5-0.9-0.5-2.8-0.8-4.4-0.7-1.5 0-3.3 0.3-3.9 0.6zm626.7 1.6c-1.7 1.7-2.3 3.3-2.2 5.8 0.1 2.1 1 4.3 2.4 5.6q2.3 2.3 6 2.3c3 0 4.2-0.6 5.8-2.7 1.2-1.6 2.1-4 2-5.5 0-1.6-1.1-3.9-2.5-5.3q-2.5-2.5-5.8-2.5c-2.2 0-4.2 0.8-5.7 2.3zm-624.9 20.5c-1.1 0.2-3 1.5-4.1 3-1.1 1.5-2.1 3.7-2 5 0 1.2 1.3 3.5 3 5.2 1.8 1.8 4 3 5.6 3 1.5 0 3.7-1.2 5.5-3 2.4-2.4 2.8-3.6 2.4-6.2-0.3-1.8-1.4-4.1-2.3-5-0.9-1-2.7-1.9-3.9-2-1.2-0.2-3.1-0.2-4.2 0zm627.4 0.6c-1.7 0.7-3.3 2-3.8 2.9-0.4 0.9-0.7 3-0.7 4.7 0 1.9 0.9 3.9 2.5 5.5 1.6 1.6 3.6 2.5 5.5 2.5 2 0 4-0.9 5.5-2.5 1.6-1.6 2.5-3.7 2.5-5.7 0-2.2-0.7-4-2.2-5.4-1.3-1.2-3.2-2.4-4.3-2.7-1.1-0.3-3.3 0-5 0.7zm-630.5 24.5c-1.6 1.6-2.9 4.1-2.9 5.5-0.1 1.4 1 3.8 2.3 5.4 1.9 2.2 3.2 2.7 6.3 2.5 2.1-0.1 4.5-1 5.5-2 1-1 2-3.3 2.3-5 0.4-2.7 0-3.8-2.5-6.3-1.8-1.8-4-3-5.6-3-1.5 0-3.7 1.2-5.4 2.9zm628.5-0.4c-1.4 1.4-2.4 3.6-2.5 5.5 0 1.6 0.4 3.9 1 5 0.5 1.1 2.3 2.5 4 3 1.7 0.5 3.8 0.7 4.7 0.4 1-0.4 2.8-1.6 4.1-2.8 1.5-1.4 2.2-3.2 2.2-5.3 0-2.2-0.9-4.2-2.5-5.8-1.6-1.6-3.6-2.5-5.5-2.5-2 0-4 0.9-5.5 2.5zm-628.3 22c-1.2 0.8-2.4 2.8-2.7 4.5-0.3 1.7 0.1 4.2 0.9 5.8 0.7 1.5 2.1 3 3 3.5 0.9 0.4 2.8 0.7 4.3 0.7 1.6 0.1 3.9-0.8 5.3-1.9 2-1.5 2.5-2.8 2.5-6.1 0-3.3-0.5-4.6-2.5-6.1-1.4-1.1-3.9-2-5.5-2-1.7 0.1-4 0.8-5.3 1.6zm627.8 0.8c-1.7 1.7-2.3 3.3-2.2 5.8 0.1 2.1 1 4.3 2.4 5.6 1.4 1.4 3.6 2.3 5.6 2.3 2.2 0 4.1-0.8 5.7-2.5 1.4-1.4 2.5-3.7 2.5-5.2 0.1-1.6-0.8-4-2-5.5-1.6-2.2-2.8-2.8-5.8-2.8-2.7 0-4.6 0.7-6.2 2.3zm-628 22.6c-1.6 1.6-2.9 4.1-2.9 5.5-0.1 1.6 1 3.7 2.9 5.6 1.8 1.8 4 3 5.6 3 1.5 0 3.7-1.2 5.5-3 2.3-2.4 2.8-3.6 2.4-6.2-0.3-1.8-1.6-4.3-3-5.5-1.4-1.3-3.7-2.3-5.1-2.3-1.5 0-3.7 1.2-5.4 2.9zm630.5-1.9c-1.2 0.5-2.6 1.8-3.3 2.9-0.7 1.2-1.2 3.4-1.2 5.1 0 1.9 0.9 3.9 2.5 5.5 1.4 1.4 3.4 2.5 4.5 2.5 1.1 0 3.2-0.6 4.7-1.4 1.6-0.7 3.1-2.1 3.5-3 0.5-0.9 0.8-2.8 0.8-4.3 0-1.6-0.6-3.5-1.3-4.4-0.7-0.9-2.2-2.1-3.5-2.7-1.2-0.7-2.8-1.2-3.5-1.1-0.6 0-2.1 0.4-3.2 0.9z"/><path class="a" d="m934.9 611.3c-0.9 0.6-1.9 2-2.3 3-0.4 1.1 0.3 2.6 1.9 4.2 1.6 1.6 3.1 2.3 4.3 1.9 0.9-0.4 2.3-1.4 3-2.3 0.7-0.9 1.2-2.2 1.2-2.8 0-0.7-0.9-2.2-2-3.3-1.1-1.1-2.6-2-3.3-2-0.7 0-2 0.6-2.8 1.3zm-20.2 2.3c-0.9 1.9-0.9 3-0.1 4.2 0.6 0.9 1.9 2.2 2.7 2.7 1.1 0.7 2.4 0.6 4.1-0.2 1.9-0.9 2.6-2.1 2.6-4 0-1.6-0.5-3.4-1.2-4.1-0.7-0.7-2.5-1.2-4.1-1.2-1.9 0-3.1 0.7-4 2.6zm37.3-0.7c-0.6 1.1-1.2 2.6-1.1 3.3 0 0.7 0.8 2.1 1.8 3.1 1.3 1.3 2.6 1.7 4.6 1.3 1.9-0.4 2.9-1.4 3.3-3.3 0.4-1.6 0.2-3.5-0.3-4.3-0.6-0.8-2.4-1.6-4.1-1.8-2.2-0.2-3.3 0.2-4.2 1.7zm19.6-0.8c-1.3 0.6-1.9 1.9-1.8 3.7 0.1 1.5 0.7 3.3 1.4 4 0.7 0.7 2.5 1.2 4.1 1.2 1.7 0 3.1-0.7 3.7-2 0.5-1.1 1-2.5 1-3 0-0.5-0.9-1.9-2-3-1.1-1.1-2.6-2-3.2-2-0.7 0-2.2 0.5-3.2 1.1zm-74.5 2.2c-0.6 0.6-1 2.5-0.9 4.1 0.2 1.6 1 3.3 1.8 3.9 0.8 0.5 2.7 0.7 4.3 0.3 1.9-0.4 2.9-1.4 3.3-3.3 0.4-2 0-3.3-1.3-4.6-1-1-2.8-1.8-3.9-1.7-1.2 0-2.7 0.6-3.3 1.3zm93.9 0c-1.8 0.9-2.5 2.1-2.5 4.2 0 2.1 0.7 3.3 2.7 4.5 2.5 1.4 2.8 1.4 4.8-0.5 1.3-1.2 2-2.9 1.8-4.4-0.2-1.3-1.2-3-2.3-3.7-1.7-1.1-2.6-1.1-4.5-0.1zm-113.3 5.3c-0.9 1.9-0.9 3-0.1 4.2 0.6 0.9 1.9 2.2 2.7 2.7 1.1 0.7 2.4 0.6 4.1-0.2 1.9-0.9 2.6-2.1 2.6-4 0-1.6-0.5-3.4-1.2-4.1-0.7-0.7-2.5-1.2-4.1-1.2-1.9 0-3.1 0.7-4 2.6zm130.3-0.4c-0.8 0.7-1.3 2.3-1.2 3.8 0.1 1.4 0.7 3.1 1.4 3.8 0.7 0.7 2.2 1.2 3.3 1.2 1.1 0.1 2.8-0.7 3.7-1.7 1-1 1.8-2.6 1.8-3.5 0-1-0.7-2.5-1.5-3.3-0.8-0.8-2.5-1.5-3.8-1.5-1.3 0-2.9 0.5-3.7 1.2zm-146.5 2.7c-1.1 0.4-2.3 1.7-2.6 2.7-0.3 1-0.2 2.9 0.2 4.2 0.5 1.2 1.7 2.3 2.7 2.3 0.9 0.1 2.4 0 3.2-0.1 0.8-0.1 2-1 2.7-1.9 0.8-0.9 1.3-2.2 1.3-2.8 0-0.7-0.9-2.2-2-3.3-1.1-1.1-2.3-2-2.7-1.9-0.5 0-1.7 0.4-2.8 0.8zm165.4 1c-2.1 1.6-2.3 2.3-1.4 4.6 0.5 1.5 1.9 3.1 3 3.6 1.3 0.5 2.8 0.3 4.2-0.7 1.4-0.8 2.3-2.4 2.3-3.9 0-1.5-0.9-3.1-2.3-4-1.2-0.8-2.5-1.5-2.8-1.5-0.4 0-1.7 0.9-3 1.9zm-201.8 11.6c-1.5 1.1-2.3 2.5-2.2 4.1 0 1.4 1.1 3 2.6 3.9 2.2 1.3 2.8 1.3 5 0 1.6-1 2.5-2.4 2.5-4 0-1.5-0.9-3.1-2.2-4-1.3-0.8-2.5-1.5-2.8-1.5-0.3 0-1.6 0.7-2.9 1.5zm237.9 1.7c-0.8 0.7-1.3 2.2-1.2 3.5 0.1 1.3 1.3 3 2.7 3.8 2.2 1.3 2.8 1.3 5 0 1.5-0.9 2.5-2.4 2.5-3.7 0-1.3-0.5-2.9-1.2-3.6-0.7-0.7-2.4-1.2-3.8-1.2-1.5 0-3.2 0.5-4 1.2zm18.6 7.9c-1.3 0.6-1.9 2-1.8 3.7 0.1 1.5 0.7 3.3 1.4 4 0.7 0.7 2.6 1.1 4.3 1 2.2-0.2 3.2-1 4-3 0.8-2.2 0.6-3.1-1-4.8-1.1-1.1-2.7-2-3.5-2-0.8 0-2.4 0.5-3.4 1.1zm16.4 9.9c-1.1 1.1-2 2.6-2 3.3 0 0.6 0.5 2 1.2 2.9 0.7 0.9 2 1.7 2.8 1.8 0.8 0.2 2.3 0.2 3.3 0.1 0.9 0 2-1.1 2.4-2.3 0.4-1.3 0.6-3 0.4-3.8-0.1-0.8-1-2.1-1.9-2.8-0.9-0.7-2.3-1.2-2.9-1.2-0.7 0-2.2 0.9-3.3 2zm16 10.2c-0.8 0.7-1.3 2.3-1.2 3.8 0.1 1.4 0.7 3.1 1.4 3.8 0.7 0.7 2.5 1.2 4.1 1.2 1.8 0 3.1-0.8 4-2.4 1-2.1 0.9-2.9-0.5-5-1.1-1.5-2.8-2.6-4.1-2.6-1.3 0-2.9 0.5-3.7 1.2zm15 11c-0.8 0.7-1.3 2.2-1.2 3.5 0.1 1.3 0.9 3 1.7 3.8 0.8 0.8 2.4 1.5 3.4 1.5 1.1 0 2.7-0.7 3.5-1.5 0.9-0.8 1.6-2.5 1.6-3.7 0-1.3-0.5-2.9-1.2-3.6-0.7-0.7-2.4-1.2-3.8-1.2-1.5 0-3.2 0.5-4 1.2zm14.4 12.9c-1.5 1.6-1.7 2.5-0.9 4.7 0.8 2 1.8 2.8 4 3 1.7 0.1 3.6-0.3 4.3-1 0.7-0.7 1.3-2.5 1.2-4 0-1.8-0.7-3.2-2-3.8-1.1-0.5-2.6-1-3.4-1-0.7 0-2.2 0.9-3.2 2.1zm15.1 12.7c-1 1-1.8 2.7-1.7 3.8 0.1 1 0.7 2.5 1.4 3.2 0.7 0.7 2.4 1.2 3.8 1.2 1.5 0 3.1-0.6 3.8-1.2 0.7-0.7 1.2-2.2 1.2-3.3 0.1-1.1-0.7-2.8-1.7-3.7-1-1-2.5-1.8-3.4-1.8-0.9 0-2.4 0.8-3.4 1.8zm48.6 60.4c-0.6 0.7-1 2.6-0.9 4.3 0.2 2.2 1 3.2 3.1 4 2.3 0.8 3.1 0.6 5-1.2 1.8-1.9 2-2.7 1.2-5-0.8-2.1-1.8-2.9-4.1-3.1-1.7-0.2-3.6 0.3-4.3 1zm9.4 16.4c-0.9 0.8-1.6 2.2-1.6 3 0.1 0.8 0.6 2.3 1.1 3.4 0.6 1.3 2 2 3.8 2 1.5 0 3.3-0.6 4-1.2 0.7-0.7 1.2-2.5 1.2-4 0-1.8-0.7-3.2-2-3.8-1.1-0.5-2.6-1-3.4-1-0.8 0-2.2 0.7-3.1 1.6zm9.7 14.5c-1.2 0.5-2.4 1.8-2.7 2.9-0.3 1.1 0 2.9 0.5 4 0.5 1.1 1.9 2.2 3 2.5 1.1 0.3 2.9 0.1 4-0.5 1.5-0.7 1.9-1.8 1.8-4.1-0.2-1.9-1.1-3.7-2.3-4.4q-2-1.3-4.3-0.4zm11.7 35.2c-0.6 1.2-0.8 3.2-0.5 4.5 0.3 1.2 1.6 2.5 2.9 2.8 1.2 0.3 3.2 0.1 4.5-0.5 1.5-0.7 2.2-2 2.2-3.8 0-1.6-0.5-3.4-1.2-4.1-0.7-0.7-2.5-1.2-4-1.2q-2.7 0-3.9 2.3zm6.1 17.9c-0.8 0.7-1.3 2.5-1.2 4 0.1 1.8 1 3.2 2.6 4.1 2.1 1 2.9 0.9 5-0.5 1.4-1 2.6-2.5 2.6-3.3 0-0.8-0.5-2.4-1-3.5-0.6-1.3-2-2-3.8-2-1.5 0-3.4 0.5-4.2 1.2zm-607 8c-0.8 0.7-1.3 2.3-1.2 3.8 0.1 1.4 0.7 3.1 1.4 3.8 0.7 0.7 2.2 1.2 3.3 1.2 1.1 0.1 2.8-0.7 3.7-1.7 1-1 1.8-2.5 1.8-3.3 0-0.8-0.7-2.3-1.7-3.2-1-1-2.7-1.8-3.8-1.8-1.2 0-2.7 0.5-3.5 1.2zm611.1 9.9c-1.1 0.5-2.3 1.7-2.6 2.7-0.3 0.9-0.2 2.5 0.2 3.6 0.5 1 1.6 2.3 2.5 2.7 1 0.5 2.7 0.7 3.8 0.4 1.1-0.3 2.4-1.5 2.9-2.7 0.5-1.5 0.4-3.1-0.3-4.5-0.6-1.3-1.8-2.4-2.7-2.6-0.9-0.2-2.6 0-3.8 0.4zm-615.1 13.1c-0.8 0.7-1.3 2.1-1.2 3.3 0.1 1.1 0.9 2.8 1.9 3.7 1 1 2.5 1.8 3.3 1.8 0.8 0 2.3-0.7 3.2-1.7 1-1 1.8-2.7 1.8-3.8 0-1.1-0.5-2.6-1.2-3.3-0.7-0.7-2.4-1.2-3.8-1.2-1.5 0-3.2 0.5-4 1.2zm-4.5 42.3c-1.3 2.2-1.3 2.8 0 5 0.9 1.5 2.4 2.5 3.8 2.5 1.3 0 2.8-0.6 3.5-1.2 0.7-0.7 1.2-2.4 1.2-3.8 0-1.4-0.5-3.1-1.2-3.8-0.7-0.7-2.3-1.2-3.5-1.2-1.3 0-2.9 1-3.8 2.5zm628.6-1.2c-0.6 0.6-1 2.5-0.9 4.1 0.2 1.6 1 3.3 1.8 3.9 0.8 0.5 2.7 0.7 4.2 0.3 1.7-0.4 3-1.5 3.4-2.8 0.3-1.3 0.1-3.3-0.5-4.5-0.8-1.6-2-2.3-4-2.3-1.6 0-3.4 0.6-4 1.3zm-628.1 22.7c-1.1 1.1-2 2.6-2 3.3 0 0.6 0.5 2 1.2 3 0.8 1.1 2.5 1.9 4.1 1.9 1.6 0 3.3-0.3 3.8-0.8 0.6-0.5 1-2.2 1.1-3.9 0-1.8-0.7-3.5-1.9-4.3-1-0.7-2.4-1.2-3-1.2-0.7 0-2.2 0.9-3.3 2zm628.5-0.4c-0.9 0.8-1.6 2.5-1.6 3.7 0 1.2 0.6 2.8 1.3 3.5 0.7 0.7 2.6 1.1 4.3 1 2.2-0.2 3.2-1 4-3.1 0.9-2.5 0.7-3.1-1.5-4.8-1.4-1.1-3-2-3.7-1.9-0.6 0-1.9 0.7-2.8 1.6zm-629 23.6c-1 1.2-1.7 2.7-1.6 3.3 0 0.5 0.8 1.8 1.8 2.7 1 1 2.7 1.8 3.8 1.8 1.2 0 2.6-0.6 3.3-1.2 0.7-0.7 1.2-2.4 1.2-3.8 0-1.4-0.5-3.1-1.2-3.8-0.7-0.7-2.3-1.2-3.5-1.2-1.2 0-2.9 1-3.8 2.2zm628.6-0.9c-0.6 0.6-1 2.5-0.9 4.1 0.2 1.6 1 3.3 1.8 3.9 0.8 0.5 2.7 0.7 4.2 0.3 2-0.4 3-1.4 3.4-3.3 0.4-2 0-3.3-1.3-4.6-1-1-2.8-1.8-3.9-1.7-1.2 0-2.7 0.6-3.3 1.3zm-627 21.8c-1.1 0.5-2.3 1.7-2.6 2.7-0.3 0.9-0.2 2.5 0.2 3.6 0.5 1 1.6 2.3 2.5 2.7 1 0.5 2.7 0.7 3.8 0.4 1.1-0.3 2.4-1.5 2.9-2.7 0.5-1.5 0.4-3.1-0.3-4.5-0.6-1.3-1.8-2.4-2.7-2.6-0.9-0.2-2.6 0-3.8 0.4zm626.9 1.1c-0.8 0.6-1.3 2.2-1.2 3.5 0.1 1.3 0.9 3 1.7 3.8 0.8 0.8 2.1 1.5 2.8 1.5 0.6 0.1 2.3-0.8 3.7-1.9 2.2-1.7 2.4-2.3 1.5-4.8-0.8-2.1-1.8-2.9-4-3.1-1.7-0.2-3.7 0.3-4.5 1zm-628.5 23.3c-0.8 1.4-1.3 3.4-1 4.5 0.3 1.2 1.7 2.3 3.3 2.6 1.5 0.4 3.4 0.2 4.2-0.3 0.8-0.6 1.6-2.3 1.8-3.9 0.1-1.6-0.3-3.5-1-4.2-0.7-0.7-2.3-1.3-3.5-1.2-1.3 0-2.9 1.1-3.8 2.5zm629-0.9c-0.9 0.8-1.6 2.5-1.6 3.7 0 1.2 0.6 2.8 1.3 3.5 0.7 0.7 2.6 1.1 4.3 1 2.2-0.2 3.2-1 4-3 0.8-2.2 0.6-3.1-1-4.8-1.1-1.1-2.8-2.1-3.7-2-0.9 0-2.4 0.7-3.3 1.6zm-629 23.2c-1 1-1.8 2.5-1.7 3.3 0.1 0.8 0.9 2.2 1.9 3.1 1 1 2.7 1.8 3.8 1.8 1.2 0 2.6-0.6 3.3-1.2 0.7-0.7 1.2-2.4 1.2-3.8 0-1.4-0.5-3.1-1.2-3.8-0.7-0.7-2.2-1.2-3.4-1.2-1.2 0-2.9 0.8-3.9 1.8zm628.5-0.6c-0.8 0.7-1.3 2.3-1.2 3.8 0.1 1.4 0.7 3.1 1.4 3.8 0.7 0.7 2.2 1.2 3.3 1.2 1.1 0.1 2.8-0.7 3.7-1.7 1-1 1.8-2.6 1.8-3.5 0-1-0.7-2.5-1.5-3.3-0.8-0.8-2.5-1.5-3.8-1.5-1.3 0-2.9 0.5-3.7 1.2zm-626.9 21.9c-1.1 0.5-2.3 1.8-2.6 2.9-0.3 1.1 0 2.9 0.5 4 0.5 1.1 1.9 2.2 3 2.5 1.1 0.3 2.8 0.1 3.7-0.4 1-0.4 2.1-1.7 2.4-2.7 0.3-1.1 0.3-2.8-0.1-3.9-0.4-1.1-1.6-2.3-2.7-2.6-1.1-0.3-3-0.2-4.2 0.2zm628 0.4c-1.5 1.1-2.3 2.5-2.2 4.1 0 1.4 1.1 3 2.6 3.9 2.2 1.3 2.8 1.3 5 0 1.6-1 2.5-2.4 2.5-4 0-1.5-0.9-3.1-2.3-4-1.2-0.8-2.4-1.5-2.7-1.5-0.3 0-1.6 0.7-2.9 1.5zm-629.6 23.7c-1 1.2-1.7 2.7-1.6 3.3 0 0.5 0.8 1.8 1.8 2.7 1 1 2.7 1.8 3.8 1.8 1.2 0 2.6-0.6 3.3-1.2 0.7-0.7 1.2-2.4 1.2-3.8 0-1.4-0.5-3.1-1.2-3.8-0.7-0.7-2.3-1.2-3.5-1.2-1.2 0-2.9 1-3.8 2.2zm628.5-0.2c-0.5 1.1-0.9 3-0.7 4.1 0.1 1.2 0.9 2.6 1.7 3.2 0.8 0.5 2.7 0.7 4.3 0.3 1.9-0.4 2.9-1.4 3.3-3.3 0.4-2 0-3.3-1.3-4.6-1-1-2.8-1.8-4-1.7-1.2 0-2.7 0.9-3.3 2zm-629.3 23.4c-1 2.1-0.9 2.9 0.5 5 1 1.4 2.6 2.6 3.5 2.6 1 0 2.5-0.5 3.4-1.2 0.9-0.7 1.9-2 2.2-2.8 0.3-0.8-0.1-2.5-0.9-3.7-0.9-1.6-2.4-2.3-4.4-2.3-2.2 0-3.4 0.7-4.3 2.4zm629.3-1.2c-0.8 0.6-1.3 2.2-1.2 3.5 0.1 1.3 0.9 3 1.7 3.8 0.8 0.8 2.3 1.5 3.3 1.5 0.9 0.1 2.6-0.9 3.7-2 1.6-1.7 1.8-2.6 1-4.8-0.8-2-1.8-2.8-4-3-1.7-0.2-3.7 0.3-4.5 1zm-628.7 23.4c-1.5 2.1-1.6 2.9-0.5 5 0.9 1.7 2 2.4 4.2 2.4 2 0 3.5-0.7 4.4-2.2 0.8-1.3 1.2-3 0.9-3.8-0.3-0.8-1.3-2.1-2.2-2.8-0.9-0.7-2.4-1.2-3.3-1.2-1 0-2.6 1.2-3.5 2.6zm629.2-1c-0.9 0.8-1.6 2.5-1.6 3.7 0 1.2 0.6 2.8 1.3 3.5 0.7 0.7 2.6 1.1 4.3 1 2.2-0.2 3.2-1 4-3 0.8-2.2 0.6-3.1-1-4.8-1.1-1.1-2.8-2.1-3.7-2-0.9 0-2.4 0.7-3.3 1.6zm-629 23.2c-1 1-1.8 2.5-1.7 3.3 0.1 0.8 0.9 2.2 1.9 3.1 1 1 2.7 1.8 3.8 1.8 1.2 0 2.6-0.6 3.3-1.2 0.7-0.7 1.2-2.4 1.2-3.8 0-1.4-0.5-3.1-1.2-3.8-0.7-0.7-2.2-1.2-3.4-1.2-1.2 0-2.9 0.8-3.9 1.8zm628.6-0.6c-0.6 0.7-1 2.6-0.9 4.3 0.2 2.2 1 3.2 3.1 4 2.3 0.8 3.1 0.6 5-1.2 1.8-1.9 2-2.7 1.2-5-0.8-2.1-1.8-2.9-4.1-3.1-1.7-0.2-3.6 0.3-4.3 1zm-628 22.7c-1.2 1.2-2.1 2.8-2.1 3.6 0 0.8 0.9 2.4 2 3.5 1.1 1.1 2.6 2 3.2 2 0.7 0 2.1-0.5 3.1-1.2 1.2-0.8 1.9-2.5 1.9-4.3-0.1-1.7-0.4-3.3-0.9-3.6-0.4-0.4-1.8-1-3-1.3-1.5-0.5-2.8-0.1-4.2 1.3zm629-0.4c-1.4 1-2.3 2.5-2.3 3.8 0.1 1.2 1.1 3.1 2.2 4.2 2 1.9 2.3 1.9 4.8 0.5 1.5-0.9 2.9-2.7 3.1-4.2 0.4-1.9-0.1-3-2-4.2-1.3-0.9-2.6-1.6-2.9-1.6-0.3 0-1.6 0.7-2.9 1.5z"/></svg>